<svg width="1576" height="1588" viewBox="0 0 1576 1588" fill="none" xmlns="http://www.w3.org/2000/svg">
<path d="M573.661 751.972C558.813 750.651 540.172 758.163 528.493 770.991L321.161 998.734C300.743 997.523 278.981 1013.5 272.301 1034.62C267.801 1048.87 271.223 1062.51 281.204 1070.13C283.18 1072.12 285.774 1073.75 288.973 1074.9L904.082 1296.49C919.582 1302.07 943.203 1294.33 957.043 1279.13L1199.56 1012.74C1205.24 1006.5 1208.36 1000 1208.99 994.124C1214.42 973.542 1203.2 956.273 1183.44 954.792C1175.13 954.183 1166.15 956.472 1157.93 961.312L581.453 753.632C579.032 752.761 576.411 752.21 573.661 751.972Z" fill="#162D50"/>
<path d="M578.551 733.46L1188.47 953.19C1206 959.503 1208.94 976.862 1195.06 992.116L951.762 1259.35C937.883 1274.6 912.59 1281.8 895.063 1275.48L285.141 1055.76C267.602 1049.44 264.672 1032.08 278.551 1016.83L521.84 749.592C535.731 734.342 561.024 727.151 578.551 733.46Z" fill="#D5E5FF"/>
<path d="M584.203 251.651C561.93 246.523 543.922 261.472 543.961 285.03C544 297.312 549.031 310.144 557.781 320.241L558.441 676.433C558.481 698.972 574.961 723.191 595.383 730.734L1151.03 936.144C1158.59 949.261 1170.91 958.882 1184.04 961.933C1206.31 967.062 1224.33 952.112 1224.28 928.554C1224.28 927.651 1224.25 926.734 1224.19 925.823C1224.27 924.761 1224.31 923.683 1224.3 922.581L1223.56 527.722C1223.52 505.183 1207.05 480.972 1186.63 473.421L594.492 254.523C592.891 253.941 591.32 253.472 589.781 253.112C589.262 252.991 588.75 252.894 588.242 252.792C586.902 252.343 585.551 251.96 584.203 251.651Z" fill="#D5E5FF"/>
<path d="M572.082 748.933L605.902 761.812L572.152 798.972L538.332 786.093L572.082 748.933Z" fill="white"/>
<path d="M614.871 765.233L648.691 778.112L614.941 815.272L581.133 802.394L614.871 765.233Z" fill="white"/>
<path d="M657.66 781.53L691.48 794.421L657.73 831.581L623.922 818.69L657.66 781.53Z" fill="white"/>
<path d="M700.461 797.831L734.273 810.722L700.531 847.882L666.711 835.003L700.461 797.831Z" fill="white"/>
<path d="M743.25 814.144L777.062 827.022L743.32 864.183L709.5 851.304L743.25 814.144Z" fill="white"/>
<path d="M786.043 830.44L819.863 843.323L786.113 880.483L752.293 867.601L786.043 830.44Z" fill="white"/>
<path d="M828.832 846.741L862.652 859.632L828.902 896.792L795.09 883.901L828.832 846.741Z" fill="white"/>
<path d="M871.621 863.042L905.441 875.933L871.691 913.093L837.883 900.21L871.621 863.042Z" fill="white"/>
<path d="M914.422 879.351L948.23 892.233L914.492 929.394L880.672 916.511L914.422 879.351Z" fill="white"/>
<path d="M957.211 895.651L991.023 908.53L957.281 945.69L923.461 932.812L957.211 895.651Z" fill="white"/>
<path d="M529.422 795.913L606.023 825.093L572.281 862.253L495.672 833.073L529.422 795.913Z" fill="white"/>
<path d="M615 828.511L648.82 841.401L615.07 878.562L581.25 865.671L615 828.511Z" fill="white"/>
<path d="M657.793 844.823L691.613 857.702L657.863 894.862L624.051 881.983L657.793 844.823Z" fill="white"/>
<path d="M700.582 861.12L734.402 874.003L700.66 911.163L666.84 898.28L700.582 861.12Z" fill="white"/>
<path d="M743.383 877.421L777.191 890.304L743.453 927.472L709.633 914.581L743.383 877.421Z" fill="white"/>
<path d="M786.172 893.722L819.98 906.612L786.242 943.772L752.422 930.894L786.172 893.722Z" fill="white"/>
<path d="M828.961 910.03L862.781 922.913L829.031 960.073L795.223 947.19L828.961 910.03Z" fill="white"/>
<path d="M871.75 926.331L905.57 939.21L871.82 976.37L838.012 963.491L871.75 926.331Z" fill="white"/>
<path d="M914.543 942.632L948.363 955.522L914.621 992.679L880.801 979.792L914.543 942.632Z" fill="white"/>
<path d="M957.34 958.933L991.152 971.823L946.41 1021.08L912.602 1008.2L957.34 958.933Z" fill="white"/>
<path d="M1000.13 975.241L1033.94 988.12L1000.2 1025.28L966.383 1012.4L1000.13 975.241Z" fill="white"/>
<path d="M1042.74 991.472L1076.55 1004.35L1042.81 1041.51L1008.99 1028.63L1042.74 991.472Z" fill="white"/>
<path d="M1085.53 1007.78L1119.35 1020.66L1085.6 1057.82L1051.79 1044.94L1085.53 1007.78Z" fill="white"/>
<path d="M487.363 842.222L606.762 887.71L573.023 924.87L453.621 879.382L487.363 842.222Z" fill="white"/>
<path d="M615.742 891.132L649.551 904.011L615.812 941.171L581.992 928.292L615.742 891.132Z" fill="white"/>
<path d="M658.531 907.433L692.352 920.312L658.602 957.472L624.793 944.593L658.531 907.433Z" fill="white"/>
<path d="M701.32 923.733L735.141 936.612L701.391 973.772L667.582 960.894L701.32 923.733Z" fill="white"/>
<path d="M744.113 940.03L777.93 952.921L744.191 990.081L710.371 977.19L744.113 940.03Z" fill="white"/>
<path d="M786.91 956.343L820.723 969.222L786.98 1006.38L753.16 993.499L786.91 956.343Z" fill="white"/>
<path d="M829.703 972.644L863.512 985.522L829.773 1022.69L795.953 1009.8L829.703 972.644Z" fill="white"/>
<path d="M958.082 1021.55L991.891 1034.43L958.152 1071.59L924.332 1058.71L958.082 1021.55Z" fill="white"/>
<path d="M1000.69 1037.78L1077.29 1066.97L1043.55 1104.13L966.941 1074.94L1000.69 1037.78Z" fill="white"/>
<path d="M872.492 988.944L949.102 1018.13L915.352 1055.29L838.75 1026.1L872.492 988.944Z" fill="white"/>
<path d="M445.211 888.644L479.023 901.522L445.281 938.683L411.461 925.804L445.211 888.644Z" fill="white"/>
<path d="M488 904.94L521.82 917.831L488.07 954.991L454.262 942.101L488 904.94Z" fill="white"/>
<path d="M530.793 921.253L564.613 934.132L530.863 971.292L497.051 958.413L530.793 921.253Z" fill="white"/>
<path d="M573.582 937.554L607.402 950.433L573.66 987.593L539.84 974.71L573.582 937.554Z" fill="white"/>
<path d="M616.383 953.851L864.152 1048.25L830.41 1085.41L582.633 991.011L616.383 953.851Z" fill="white"/>
<path d="M873.133 1051.67L906.941 1064.55L873.203 1101.71L839.383 1088.83L873.133 1051.67Z" fill="white"/>
<path d="M915.922 1067.97L949.742 1080.85L915.992 1118.01L882.18 1105.13L915.922 1067.97Z" fill="white"/>
<path d="M958.242 1084.52L1034.85 1113.71L1001.1 1150.87L924.5 1121.68L958.242 1084.52Z" fill="white"/>
<path d="M599.23 1016.16L765.402 1079.46C773.742 1082.64 775.113 1091.09 768.472 1098.41L701.492 1172.17C694.851 1179.48 682.781 1182.81 674.441 1179.64L508.273 1116.33C499.929 1113.15 498.562 1104.7 505.203 1097.39L572.179 1023.63C578.82 1016.31 590.89 1012.98 599.23 1016.16Z" fill="#FF8080"/>
<path d="M577.422 262.761L1175.52 483.862C1194.29 490.803 1209.44 514.522 1209.48 537.061L1210.22 931.921C1210.26 954.452 1195.18 967.003 1176.42 960.073L578.313 738.971C559.543 732.03 544.402 708.311 544.363 685.772L543.621 290.913C543.582 268.382 558.652 255.823 577.422 262.761Z" fill="#162D50"/>
<mask id="mask0_556_712" style="mask-type:luminance" maskUnits="userSpaceOnUse" x="557" y="277" width="640" height="668">
<path d="M557.352 277.632H1196.35V944.632H557.352V277.632Z" fill="white"/>
</mask>
<g mask="url(#mask0_556_712)">
<mask id="mask1_556_712" style="mask-type:luminance" maskUnits="userSpaceOnUse" x="557" y="278" width="639" height="667">
<path d="M564.973 278.62C556.09 283.421 557.793 296.733 558.742 305.112C559.59 435.401 557.082 566.413 561.012 696.292C568.043 720.12 591.731 727.46 611.723 732.991C803.352 803.394 994.301 875.562 1186.48 944.522C1195.8 944.093 1196.87 930.612 1195.38 923.331C1193.97 791.382 1196.72 658.741 1193.01 527.144C1186.17 502.94 1162.27 495.272 1142.06 489.823C950.391 419.581 759.641 346.96 567.274 278.542L566.231 278.44L564.973 278.62Z" fill="white"/>
</mask>
<g mask="url(#mask1_556_712)">
<path d="M1063.39 18.2178L1467.37 805.765L689.578 1204.75L285.594 417.198L1063.39 18.2178Z" fill="url(#paint0_linear_556_712)"/>
</g>
</g>
<path d="M288.812 869.843L94.1797 736.073L101.062 423.253L295.691 557.03L288.812 869.843Z" fill="#87DECD"/>
<path d="M296.551 557.601C311.23 550.53 329.063 540.96 343.742 533.882L155.793 403.651C141.113 410.722 122.391 419.792 107.711 426.862L296.551 557.601Z" fill="#F2F2F2"/>
<path d="M344.66 533.44L337.48 846.401L288.812 869.843L295.691 557.022L349.562 531.081L344.66 533.44Z" fill="white"/>
<path d="M134.492 454.46L165.832 476.261L184.543 471.401L159.992 461.073L154.59 449.081L134.492 454.46Z" fill="#D5E5FF"/>
<path d="M88.5508 777.554L87 540.733L73.7422 545.132L56.0508 501.562L86.6016 479.472L307.422 636.202L309.371 934.28L278.82 956.37L271.523 907.413L88.5508 777.554Z" fill="#D35F5F"/>
<path d="M56.0508 501.562L58 799.644L278.82 956.37L276.871 658.292L56.0508 501.562Z" fill="#DE8787"/>
<path d="M278.82 956.37L276.871 658.292L302.871 639.253L305.5 937.452L278.82 956.37Z" fill="white"/>
<path d="M58.8711 848.522L192.711 942.733L179.402 977.44L213.742 1015.48L270.332 997.362L268.043 703.472L56.5898 554.632L0 572.761L57.293 644.952L58.8711 848.522Z" fill="#C8AB37"/>
<path d="M213.742 1015.48L2.29297 866.651L0 572.753L211.461 721.593L213.742 1015.48Z" fill="#DECD87"/>
<path d="M212.391 722.241C227.813 717.292 246.512 710.362 261.93 705.421L57.7109 560.702C42.293 565.644 22.6328 571.991 7.20312 576.94L212.391 722.241Z" fill="#F2F2F2"/>
<path d="M262.902 705.112L264.863 999.108L213.742 1015.48L211.461 721.593L268.043 703.472L262.902 705.112Z" fill="white"/>
<path d="M148.043 710.132L271.242 794.804L257.633 833.343L288.812 869.843L342.68 843.901L349.562 531.093L154.922 397.323L101.062 423.253L152.812 493.452L148.043 710.132Z" fill="#162D50"/>
<path d="M288.812 869.843L94.1797 736.073L101.062 423.253L295.691 557.03L288.812 869.843Z" fill="#AACCFF"/>
<path d="M296.551 557.601C311.23 550.53 329.063 540.96 343.742 533.882L155.793 403.651C141.113 410.722 122.391 419.792 107.711 426.862L296.551 557.601Z" fill="#F2F2F2"/>
<path d="M344.66 533.44L337.48 846.401L288.812 869.843L295.691 557.022L349.562 531.081L344.66 533.44Z" fill="white"/>
<path d="M139.023 430.562L167.992 449.351L185.543 441.401L162.75 433.913L157.883 421.851L139.023 430.562Z" fill="#AFC6E9"/>
<path d="M88.5508 777.554L87 540.733L73.7422 545.132L56.0508 501.562L86.6016 479.472L307.422 636.202L309.371 934.28L278.82 956.37L271.523 907.413L88.5508 777.554Z" fill="#162D50"/>
<path d="M56.0508 501.562L58 799.644L278.82 956.37L276.871 658.292L56.0508 501.562Z" fill="#5F8DD3"/>
<path d="M278.82 956.37L276.871 658.292L302.871 639.253L305.5 937.452L278.82 956.37Z" fill="white"/>
<path d="M58.8711 848.522L192.711 942.733L179.402 977.44L213.742 1015.48L270.332 997.362L268.043 703.472L56.5898 554.632L0 572.761L57.293 644.952L58.8711 848.522Z" fill="#FF5555"/>
<path d="M213.742 1015.48L2.29297 866.651L0 572.753L211.461 721.593L213.742 1015.48Z" fill="#FF5555"/>
<path d="M212.391 722.241C227.813 717.292 246.512 710.362 261.93 705.421L57.7109 560.702C42.293 565.644 22.6328 571.991 7.20312 576.94L212.391 722.241Z" fill="#F2F2F2"/>
<path d="M262.902 705.112L264.863 999.108L213.742 1015.48L211.461 721.593L268.043 703.472L262.902 705.112Z" fill="white"/>
<path d="M41.7812 583.78L73.2109 604.87L91.6602 599.433L67.1602 589.71L61.5898 577.772L41.7812 583.78Z" fill="#FF8080"/>
<path d="M285.531 700.362L284.973 672.261L299.172 661.093L292.953 684.753L299.18 693.21L285.531 700.362Z" fill="#162D50"/>
<path d="M1343.19 976.35C1347.38 978.573 1352.58 976.983 1354.8 972.804C1357.03 968.62 1355.43 963.44 1351.24 961.233C1347.05 959.011 1341.85 960.6 1339.63 964.772C1338.56 966.78 1338.33 969.132 1339 971.304C1339.67 973.471 1341.17 975.28 1343.19 976.35Z" fill="#AC939D"/>
<path d="M1479.93 1176.51L1527.48 1021.64L1353.15 1072.1L1479.93 1176.51Z" fill="#FFD5D5"/>
<path d="M1440.07 1046.94L1527.47 1021.64L1479.93 1176.51L1440.07 1046.94Z" fill="#F4D7D7"/>
<path d="M1456.96 1157.58C1462.99 1156.34 1469 1154.82 1474.93 1153.05C1479.54 1151.62 1484.1 1150.04 1488.59 1148.31L1479.93 1176.51L1456.96 1157.58Z" fill="#162D50"/>
<path d="M1455.3 870.46L1511.81 1053.45C1498.13 1068.26 1477.09 1080.68 1453.38 1087.94C1429.87 1095.1 1405.68 1096.61 1386.1 1092.13L1329.71 908.831C1331.99 909.351 1334.36 909.792 1336.78 910.151C1338.09 910.331 1339.43 910.483 1340.77 910.612C1342.11 910.78 1343.46 910.933 1344.83 911.054C1346.21 911.132 1347.61 911.19 1349.01 911.233C1350.41 911.304 1351.82 911.351 1353.24 911.37C1354.68 911.362 1356.13 911.323 1357.59 911.261C1359.03 911.241 1360.48 911.19 1361.94 911.12C1363.42 911.011 1364.91 910.882 1366.41 910.722C1367.87 910.601 1369.35 910.452 1370.82 910.292C1372.33 910.081 1373.83 909.851 1375.34 909.601C1376.84 909.394 1378.33 909.151 1379.83 908.894C1381.33 908.593 1382.83 908.272 1384.32 907.933C1385.83 907.62 1387.34 907.292 1388.84 906.933C1391.62 906.253 1394.38 905.503 1397.13 904.671C1399.87 903.823 1402.58 902.901 1405.26 901.921C1406.71 901.37 1408.14 900.812 1409.57 900.222C1411 899.671 1412.42 899.093 1413.83 898.503C1415.22 897.882 1416.6 897.241 1417.96 896.581C1419.35 895.952 1420.71 895.304 1422.07 894.644C1423.39 893.94 1424.7 893.241 1426 892.511C1427.32 891.812 1428.62 891.093 1429.9 890.362C1431.15 889.601 1432.38 888.831 1433.58 888.054C1434.83 887.292 1436.05 886.511 1437.24 885.71C1438.4 884.901 1439.54 884.081 1440.65 883.253C1441.8 882.421 1442.93 881.593 1444.03 880.741C1445.09 879.894 1446.12 879.022 1447.12 878.144C1448.17 877.272 1449.2 876.394 1450.19 875.503C1451.99 873.851 1453.7 872.171 1455.3 870.46Z" fill="#AACCFF"/>
<path d="M1462.78 802.651C1480.97 859.651 1505.08 939.312 1526.61 1009.82L1526.53 1009.85C1530.56 1023.39 1525.15 1039.18 1511.5 1053.78L1447.82 846.823C1461.54 832.132 1466.91 816.253 1462.76 802.671" fill="#FF5555"/>
<path d="M1425.57 774.421C1445.2 778.921 1458.58 789.081 1462.78 802.651C1466.93 816.233 1461.56 832.112 1447.84 846.804L1373.91 829.792L1425.57 774.421Z" fill="#FF5555"/>
<path d="M1381.37 853.46L1455.3 870.46C1441.61 885.151 1420.68 897.46 1397.13 904.671C1373.56 911.851 1349.31 913.351 1329.71 908.831L1381.37 853.46Z" fill="#FFCCAA"/>
<path d="M1303.93 825.042L1377.86 842.054L1326.2 897.421C1306.57 892.921 1293.19 882.772 1289 869.202C1284.84 855.612 1290.21 839.733 1303.93 825.042Z" fill="#FFC2A1"/>
<path d="M1353.31 762.85C1376.88 755.671 1401.13 754.171 1420.73 758.69L1369.07 814.061L1295.14 797.061C1308.83 782.362 1329.76 770.061 1353.31 762.85Z" fill="#FF5555"/>
<path d="M1381.37 853.46L1406.79 859.304C1402.08 864.351 1394.89 868.581 1386.79 871.062C1378.69 873.53 1370.35 874.042 1363.61 872.491L1381.37 853.46Z" fill="#FF5555"/>
<path d="M1391.67 810.761C1398.41 812.312 1403.01 815.804 1404.46 820.46C1405.88 825.132 1404.04 830.593 1399.32 835.644L1373.91 829.792L1391.67 810.761Z" fill="#FF5555"/>
<path d="M1352.45 836.21L1377.86 842.054L1360.1 861.093C1353.36 859.542 1348.76 856.054 1347.31 851.382C1345.89 846.71 1347.73 841.253 1352.45 836.21Z" fill="#FF5555"/>
<path d="M1363.65 796.46C1371.75 793.991 1380.09 793.483 1386.83 795.03L1369.07 814.061L1343.65 808.221C1348.36 803.17 1355.56 798.94 1363.65 796.46Z" fill="#FF5555"/>
<path d="M1373.91 829.792L1369.07 814.062L1420.73 758.69L1425.57 774.421L1373.91 829.792Z" fill="#FF5555"/>
<path d="M1373.91 829.792L1369.07 814.062L1386.83 795.03L1391.67 810.761L1373.91 829.792Z" fill="#FF5555"/>
<path d="M1369.07 814.062L1377.86 842.054L1303.93 825.042L1295.14 797.062L1369.07 814.062Z" fill="#FF5555"/>
<path d="M1343.65 808.222L1352.45 836.21L1377.86 842.054L1369.07 814.062L1343.65 808.222Z" fill="#FF5555"/>
<path d="M1373.91 829.792L1447.84 846.804L1455.3 870.46L1381.37 853.46L1373.91 829.792Z" fill="#FF5555"/>
<path d="M1373.91 829.792L1399.32 835.644L1406.79 859.304L1381.37 853.46L1373.91 829.792Z" fill="#FF5555"/>
<path d="M1377.86 842.054L1381.37 853.46L1329.71 908.831L1326.2 897.421L1377.86 842.054Z" fill="#FFE6D5"/>
<path d="M1377.86 842.054L1381.37 853.46L1363.61 872.491L1360.1 861.093L1377.86 842.054Z" fill="#FF5555"/>
<path d="M1288.79 868.761L1288.93 868.851C1288.96 868.96 1288.98 869.073 1289 869.183C1293.2 882.753 1306.58 892.913 1326.21 897.413L1386.11 1092.12C1366.91 1087.73 1353.64 1077.94 1349.12 1064.8L1288.79 868.761Z" fill="#D5E5FF"/>
<path d="M1488.59 1148.31L1479.93 1176.51L1472.9 1153.64C1473.58 1153.44 1474.26 1153.25 1474.93 1153.05C1479.54 1151.62 1484.1 1150.04 1488.59 1148.31Z" fill="#0B1728"/>
<path d="M1455.3 870.46L1511.81 1053.45C1498.13 1068.26 1477.09 1080.68 1453.38 1087.94C1453.17 1088 1452.95 1088.06 1452.74 1088.12L1396.36 904.882C1396.62 904.812 1396.87 904.741 1397.13 904.671C1399.86 903.823 1402.58 902.913 1405.26 901.921C1406.71 901.37 1408.14 900.812 1409.57 900.222C1411 899.671 1412.42 899.101 1413.83 898.503C1415.22 897.882 1416.6 897.241 1417.96 896.581C1419.35 895.952 1420.71 895.304 1422.06 894.644C1423.39 893.952 1424.7 893.241 1425.99 892.511C1427.31 891.812 1428.62 891.093 1429.9 890.362C1431.15 889.601 1432.38 888.843 1433.58 888.054C1434.82 887.292 1436.04 886.511 1437.24 885.71C1438.4 884.901 1439.54 884.081 1440.65 883.253C1441.8 882.433 1442.93 881.593 1444.03 880.753C1445.09 879.894 1446.12 879.022 1447.12 878.144C1448.17 877.28 1449.2 876.401 1450.19 875.511C1451.99 873.862 1453.7 872.171 1455.3 870.472" fill="#FF8080"/>
<path d="M1369.25 781.933C1370.08 781.683 1370.92 781.421 1371.76 781.171C1408.44 770.831 1447.5 763.824 1485.99 771.792C1489.62 772.394 1493.26 773.241 1496.81 774.421L1515.88 768.523L1527.32 804.023L1527.31 804.011C1529.79 811.613 1530.16 819.863 1527.82 827.433C1522.65 846.952 1507.5 860.523 1492.51 871.113C1447.6 903.562 1393.53 919.011 1339.38 926.003C1312.83 928.46 1284.35 927.562 1259.87 913.152C1252.06 907.511 1246.24 898.554 1243.65 888.87L1232.98 856.054L1252.26 850.093C1262.88 834.343 1279.27 823.671 1294.64 813.753C1317.93 799.671 1343.35 789.863 1369.26 781.921" fill="#162D50"/>
<path d="M1360.98 747.433C1397.66 737.093 1436.72 730.081 1475.21 738.042C1486.86 739.984 1498.6 744.472 1506.88 754.023C1516.68 764.312 1521.23 780.101 1517.02 793.71C1511.85 813.222 1496.7 826.804 1481.72 837.382C1436.81 869.831 1382.74 885.292 1328.58 892.28C1302.04 894.734 1273.56 893.831 1249.08 879.421C1234.02 868.562 1226.37 845.37 1235 828.413C1244.29 805.691 1264.85 792.28 1283.85 780.023C1307.89 765.491 1334.19 755.511 1360.98 747.433Z" fill="#162D50"/>
<path d="M1359.4 745.984C1394.56 736.062 1431.99 729.273 1468.8 736.644C1479.94 738.421 1491.17 742.613 1499.05 751.601C1508.4 761.281 1512.69 776.191 1508.6 789.062C1503.57 807.523 1489.01 820.413 1474.61 830.484C1431.48 861.331 1379.65 876.163 1327.78 882.992C1302.36 885.433 1275.09 884.691 1251.72 871.183C1237.35 860.984 1230.12 839.101 1238.45 823.031C1247.44 801.531 1267.19 788.773 1285.42 777.101C1308.5 763.281 1333.73 753.734 1359.4 745.984Z" fill="#D5E5FF"/>
<path d="M1333.48 668.702C1334.28 668.452 1335.08 668.21 1335.89 667.96C1371.23 658.1 1409 651.882 1446.69 661.671C1450.25 662.432 1453.82 663.46 1457.3 664.843L1475.66 659.151L1504.9 752.561L1504.89 752.553C1507.55 760.76 1508.19 769.6 1506.16 777.62C1501.77 798.331 1487.48 812.362 1473.25 823.19C1430.64 856.432 1378.55 871.202 1326.11 876.901C1300.37 878.663 1272.64 876.772 1248.35 860.553C1240.56 854.26 1234.61 844.491 1231.78 834.042L1203.37 743.53L1221.93 737.78C1231.74 721.28 1247.33 710.401 1261.95 700.292C1284.15 686.003 1308.54 676.331 1333.49 668.682" fill="#333333"/>
<path d="M1324.29 631.523C1359.64 621.652 1397.4 615.433 1435.1 625.222C1446.49 627.671 1458.07 632.851 1466.43 643.351C1476.31 654.671 1498.19 726.78 1494.54 741.191C1490.16 761.902 1475.87 775.921 1461.64 786.761C1419.03 820.003 1366.94 834.773 1314.5 840.472C1288.76 842.234 1261.03 840.343 1236.74 824.12C1221.74 812.011 1196.59 731.894 1204.43 714.03C1212.71 690.03 1232.27 676.363 1250.34 663.863C1273.25 649.113 1298.51 639.28 1324.29 631.523Z" fill="#333333"/>
<path d="M1367.86 780.073C1368.67 779.823 1369.47 779.581 1370.28 779.331C1405.62 769.472 1443.38 763.253 1481.08 773.03C1489.25 774.792 1497.5 777.952 1504.6 783.46C1498.99 801.03 1486.09 813.421 1473.24 823.21C1430.62 856.452 1378.54 871.222 1326.1 876.921C1300.36 878.683 1272.62 876.792 1248.34 860.573C1240.75 854.44 1234.9 845.003 1231.98 834.851L1239.33 834.94L1254.33 852.71C1263.93 834.19 1280.69 822.491 1296.33 811.671C1318.52 797.382 1342.92 787.722 1367.86 780.073Z" fill="#162D50"/>
<path d="M1324.29 631.523C1359.64 621.652 1397.4 615.433 1435.1 625.222C1446.49 627.671 1458.07 632.851 1466.43 643.351C1476.31 654.671 1498.19 726.78 1494.54 741.191C1490.16 761.902 1475.87 775.921 1461.64 786.761C1419.03 820.003 1366.94 834.773 1314.5 840.472C1288.76 842.234 1261.03 840.343 1236.74 824.12C1221.74 812.011 1196.59 731.894 1204.43 714.03C1212.71 690.03 1232.27 676.363 1250.34 663.863C1273.25 649.113 1298.51 639.28 1324.29 631.523Z" fill="#162D50"/>
<path d="M1295.54 555.042L1555.53 620.933L1571.08 612.831L1575.1 625.894L1383.42 840.683L1103.85 769.831L1099.84 756.772L1116.07 756.144L1295.54 555.042Z" fill="#0B1728"/>
<path d="M1291.52 541.983L1099.84 756.772L1379.4 827.62L1571.08 612.831L1291.52 541.983Z" fill="#162D50"/>
<path d="M1323.44 688.471C1324.43 691.71 1330.62 692.682 1337.26 690.663C1343.9 688.632 1348.47 684.362 1347.48 681.132C1347 679.581 1345.28 678.471 1342.69 678.061C1340.09 677.651 1336.85 677.971 1333.66 678.94C1330.47 679.921 1327.6 681.471 1325.69 683.253C1323.77 685.042 1322.96 686.921 1323.44 688.471Z" fill="#FF5555"/>
<path d="M1335.69 683.12C1336.11 682.432 1336.81 681.959 1337.6 681.842C1398.82 671.112 1459.98 660.381 1491.65 657.131C1507.48 655.502 1515.91 655.592 1521.42 657.553C1524.18 658.53 1526.2 660.151 1527.48 662.061C1528.76 663.959 1529.36 665.983 1529.98 667.983C1532.44 675.991 1535.6 687.17 1538.81 698.53C1539.1 699.471 1538.86 700.502 1538.17 701.221C1537.48 701.932 1536.46 702.221 1535.5 701.971C1534.54 701.721 1533.79 700.959 1533.54 700.002C1530.33 688.643 1527.17 677.483 1524.74 669.581C1524.13 667.6 1523.62 666.112 1522.93 665.092C1522.25 664.073 1521.45 663.35 1519.58 662.69C1515.85 661.362 1507.79 660.952 1492.21 662.553C1461.05 665.752 1399.77 676.471 1338.55 687.202C1337.49 687.413 1336.41 686.971 1335.79 686.092C1335.18 685.209 1335.13 684.053 1335.69 683.12Z" fill="#FF5555"/>
<path d="M1528.49 710.581C1529.91 715.202 1535.65 717.542 1541.31 715.811C1544.03 714.983 1546.37 713.303 1547.81 711.151C1549.25 708.991 1549.67 706.542 1548.99 704.323C1548.31 702.112 1546.57 700.311 1544.17 699.331C1541.77 698.35 1538.89 698.272 1536.17 699.1C1533.45 699.932 1531.11 701.6 1529.67 703.76C1528.23 705.913 1527.81 708.37 1528.49 710.581Z" fill="#FF5555"/>
<path d="M1552.03 720.471C1559.64 729.983 1570.9 748.362 1573.11 760.542C1575.32 772.721 1568.48 778.69 1561.76 780.682C1555.04 782.663 1548.46 780.663 1543.89 772.471C1539.33 764.272 1536.79 749.901 1535.9 738.401C1535.01 726.901 1535.77 718.28 1538.12 714.292C1540.47 710.303 1544.43 710.952 1552.03 720.471Z" fill="#FF5555"/>
<path d="M1303.9 1246.22L971.863 1296.14L972.473 1426.88C972.32 1427.13 972.172 1426.38 972.012 1426.63L972.48 1426.71V1426.99L972.383 1426.85L1167.16 1457.95L1305.31 1376.31L1304.96 1376.14L1303.9 1246.22Z" fill="#F9F9F9"/>
<path d="M1370 1376.06L1178.62 1376.68L1178.24 1464.11L1178.35 1464.63L1230.74 1581.44C1260.59 1575.46 1287.73 1565.45 1310.06 1552.19C1348.59 1529.08 1370.07 1497.74 1369.74 1465.12C1368.94 1422.04 1369.84 1419.59 1370 1376.06Z" fill="#FF5555"/>
<path d="M960.781 1433.02C960.703 1476.69 961.113 1425.61 961.113 1469.31C961.34 1501.42 982.711 1529.41 1020.61 1552.19C1071.65 1582.6 1145.7 1594.73 1215.56 1584.12L1215.15 1583.2L1215.96 1583.57L1215.65 1548.99L960.781 1433.02Z" fill="#162D50"/>
<path d="M1304.27 1246.42C1223.6 1201.82 1098.38 1203.24 1020.61 1249.64C998.363 1262.96 981.563 1279.17 971.523 1297.01L1167.16 1328.33L1304.27 1246.42Z" fill="white"/>
<path d="M1315.37 1295.25L1178.35 1377.11L1230.74 1493.91C1260.59 1487.94 1287.73 1477.93 1310.06 1464.66C1387.65 1418.19 1389.99 1343.42 1315.37 1295.25Z" fill="#FF8080"/>
<path d="M1163.07 1432.17L967.16 1400.81C949.402 1442.55 969.711 1486.79 1020.61 1517.28C1071.65 1547.69 1145.7 1559.82 1215.56 1549.21L1163.07 1432.17Z" fill="#5F8DD3"/>
<path d="M340.332 1192.72C345.551 1191.92 350.891 1192.44 355.852 1194.23L716.57 1324.52L716.891 1307.34L723.652 1315.35L727.453 1333.49C727.461 1333.52 727.473 1333.55 727.473 1333.58L727.582 1334.06H727.562C728.223 1337.74 726.863 1341.49 723.992 1343.9L584.75 1460.62C576.133 1467.84 564.312 1469.94 553.723 1466.11L188.773 1334.3C185.25 1333.02 182.68 1329.98 182.023 1326.31L182 1326.29L178.09 1307.58L189.391 1311.11L189.332 1313.31L324.82 1199.73C329.25 1196.01 334.621 1193.59 340.34 1192.72" fill="#162D50"/>
<path d="M580.832 1441.91L720.07 1325.19C722.953 1322.78 724.313 1319.03 723.653 1315.35C723 1311.67 720.422 1308.62 716.891 1307.34L351.942 1175.53C341.352 1171.7 329.531 1173.8 320.91 1181.02L181.672 1297.74C178.801 1300.14 177.43 1303.9 178.09 1307.58C178.742 1311.26 181.32 1314.32 184.852 1315.59L549.801 1447.41C560.391 1451.23 572.223 1449.14 580.832 1441.91Z" fill="#AACCFF"/>
<path d="M690.5 1308.94L541.98 1433.44L211.242 1313.99L359.762 1189.48L690.5 1308.94Z" fill="#3E3748"/>
<path d="M359.73 1187.93C470.941 1228.1 582.16 1268.27 693.371 1308.44C643 1350.66 592.641 1392.87 542.273 1435.1C430.973 1394.89 319.672 1354.69 208.371 1314.49C258.742 1272.27 309.102 1230.05 359.473 1187.83C359.563 1187.87 359.641 1187.9 359.73 1187.93Z" fill="white"/>
<path d="M395.902 1236.96C462.98 1261.18 530.051 1285.41 597.133 1309.64C566.75 1335.1 536.371 1360.57 506 1386.03C438.871 1361.78 371.742 1337.54 304.613 1313.29C334.992 1287.83 365.371 1262.37 395.742 1236.9C395.801 1236.92 395.852 1236.94 395.902 1236.96Z" fill="#FF5555"/>
<path d="M458.25 1343.85C440.18 1344.46 422.07 1341.64 407.91 1336C393.75 1330.36 384.691 1322.37 382.73 1313.78C378.66 1295.89 405.863 1280.36 443.492 1279.08C461.562 1278.47 479.672 1281.29 493.832 1286.93C507.992 1292.57 517.051 1300.56 519.012 1309.15C520.973 1317.74 515.66 1326.22 504.273 1332.73C492.883 1339.24 476.332 1343.24 458.25 1343.85Z" fill="#162D50"/>
<path d="M488.031 1320.91C489.891 1319.42 474.852 1306.05 472.961 1304.49C471.07 1302.94 454.223 1290.04 450.481 1289.98C446.731 1289.92 430.172 1302.28 428.313 1303.77C426.461 1305.27 411.723 1318.16 413.613 1319.71C415.5 1321.27 447.102 1322.27 450.84 1322.34C454.59 1322.39 486.18 1322.41 488.031 1320.91Z" fill="white"/>
<path d="M848.703 392.152C842.91 392.484 837.312 394.292 832.062 397.452C821.543 403.781 812.332 415.343 804.633 431.093C789.23 462.593 779.84 511.003 779.84 569.183C779.84 627.363 789.262 684.292 804.543 729.433C819.82 774.574 840.773 808.074 864.941 819.074C877.023 824.562 888.902 823.671 899.41 817.343C909.93 811.011 919.141 799.452 926.84 783.702C942.242 752.21 951.633 703.792 951.633 645.613C951.633 587.441 942.211 530.511 926.93 485.363C911.66 440.222 890.703 406.734 866.531 395.734C860.492 392.984 854.5 391.831 848.703 392.152ZM848.922 395.902C854.063 395.613 859.391 396.671 864.941 399.202C887.152 409.312 908.191 441.913 923.301 486.581C938.422 531.261 947.801 587.851 947.801 645.613C947.801 703.382 938.391 751.382 923.402 782.031C915.902 797.363 907.023 808.304 897.441 814.074C887.852 819.851 877.641 820.652 866.531 815.593C844.32 805.492 823.281 772.882 808.16 728.21C793.051 683.542 783.672 626.952 783.672 569.183C783.672 511.413 793.082 463.421 808.07 432.761C815.57 417.433 824.453 406.492 834.043 400.722C838.832 397.831 843.781 396.191 848.922 395.902Z" fill="#162D50"/>
<path d="M723.211 387.054C720.523 387.421 718.031 388.21 715.762 389.44C711.223 391.893 707.941 396.011 705.941 401.311C703.941 406.612 703.133 413.112 703.363 420.671C703.801 435.792 708.383 455.233 716.543 477.823C732.852 523.003 763.531 580.761 804.773 640.593C846.012 700.421 889.992 750.991 927.883 784.472C946.82 801.202 964.231 813.671 979.133 820.893C994.031 828.12 1006.63 830.261 1015.71 825.35C1020.25 822.901 1023.53 818.78 1025.53 813.483C1027.53 808.182 1028.34 801.69 1028.11 794.12C1027.66 779.003 1023.09 759.561 1014.93 736.972C998.621 691.792 967.93 634.03 926.691 574.202C885.461 514.37 841.481 463.804 803.59 430.331C784.652 413.593 767.242 401.12 752.34 393.901C741.16 388.483 731.281 385.921 723.211 387.054C730.172 386.132 739.262 388.292 750.063 393.522C764.453 400.503 781.672 412.792 800.453 429.382C838 462.561 881.852 512.94 922.941 572.561C964.023 632.171 994.582 689.741 1010.72 734.46C1018.8 756.823 1023.25 775.983 1023.68 790.432C1023.9 797.651 1023.1 803.69 1021.34 808.331C1019.58 812.983 1016.94 816.222 1013.28 818.19C1005.96 822.151 994.602 820.643 980.203 813.663C965.813 806.682 948.59 794.401 929.813 777.811C892.262 744.632 848.41 694.241 807.32 634.62C766.242 575.011 735.68 517.44 719.543 472.722C711.461 450.362 707.012 431.202 706.582 416.753C706.363 409.53 707.16 403.491 708.922 398.85C710.672 394.21 713.32 390.972 716.981 388.991C718.813 388.003 720.891 387.35 723.211 387.054Z" fill="#162D50"/>
<path d="M929.203 487.573C891.082 486.553 846.882 497.151 805.441 519.561C763.992 541.971 733.113 571.971 716.652 602.573C700.203 633.171 698.222 664.612 715.089 689.092C731.961 713.561 764.152 726.21 802.273 727.233C840.39 728.241 884.589 717.643 926.031 695.233C967.472 672.823 998.363 642.823 1014.82 612.221C1031.27 581.62 1033.24 550.182 1016.38 525.71C999.511 501.233 967.32 488.581 929.203 487.573C966.531 488.561 997.402 500.952 1013.33 524.061C1029.25 547.171 1027.55 576.85 1011.55 606.612C995.543 636.37 965.191 665.96 924.312 688.073C883.429 710.182 839.8 720.6 802.48 719.6C765.152 718.612 734.281 706.233 718.351 683.12C702.421 660.01 704.132 630.323 720.132 600.561C736.132 570.803 766.492 541.21 807.371 519.1C848.25 496.991 891.882 486.573 929.203 487.573Z" fill="#162D50"/>
<path d="M703.012 478.261C689.941 478.593 679.023 480.702 670.66 484.734C659.512 490.113 653.012 499.273 653.012 511.46C653.012 523.663 659.141 537.632 669.93 552.671C680.73 567.71 696.273 583.831 715.43 600.152C753.742 632.792 806.57 666.202 864.941 692.761C865 692.792 865.063 692.812 865.121 692.831C923.41 719.343 976.191 734.023 1014.69 736.273C1033.95 737.402 1049.66 735.441 1060.81 730.062C1071.96 724.683 1078.46 715.523 1078.46 703.331C1078.46 691.132 1072.33 677.171 1061.53 662.132C1050.74 647.093 1035.2 630.96 1016.04 614.644C977.723 582.003 924.902 548.593 866.531 522.031C808.16 495.472 755.32 480.773 716.781 478.523C711.961 478.241 707.371 478.152 703.012 478.261ZM703.113 482.081C707.352 481.972 711.84 482.054 716.562 482.331C754.32 484.531 806.883 499.081 864.941 525.503C923 551.921 975.582 585.191 1013.56 617.542C1032.55 633.722 1047.88 649.671 1058.42 664.351C1068.96 679.031 1074.63 692.433 1074.63 703.331C1074.63 714.234 1069.33 721.71 1059.14 726.632C1048.95 731.554 1033.79 733.574 1014.91 732.46C977.152 730.261 924.59 715.722 866.531 689.292C808.473 662.87 755.891 629.601 717.91 597.253C698.93 581.074 683.59 565.132 673.051 550.452C662.512 535.773 656.84 522.363 656.84 511.46C656.84 500.562 662.141 493.093 672.332 488.171C679.973 484.484 690.41 482.421 703.113 482.081Z" fill="#162D50"/>
<path d="M702.023 386.112C702.023 394.092 708.523 403.522 716.531 407.163C724.551 410.811 731.051 407.303 731.051 399.323C731.051 395.483 729.523 391.112 726.801 387.163C724.07 383.221 720.383 380.01 716.531 378.26C708.523 374.612 702.023 378.131 702.023 386.112Z" fill="#FF5555"/>
<path d="M778.883 463.37C778.883 471.35 785.383 480.772 793.391 484.421C801.402 488.073 807.902 484.554 807.902 476.573C807.902 468.593 801.402 459.171 793.391 455.522C789.543 453.772 785.852 453.612 783.133 455.081C780.41 456.554 778.883 459.53 778.883 463.37Z" fill="#FF5555"/>
<path d="M886.371 700.144C886.371 708.12 892.871 717.554 900.883 721.203C908.891 724.843 915.391 721.331 915.391 713.351C915.391 705.37 908.891 695.941 900.883 692.304C892.871 688.652 886.371 692.163 886.371 700.144Z" fill="#FF5555"/>
<path d="M1059.43 698.612C1059.43 702.452 1060.96 706.823 1063.68 710.772C1066.4 714.721 1070.09 717.921 1073.94 719.671C1081.95 723.323 1088.45 719.804 1088.45 711.823C1088.45 703.843 1081.95 694.413 1073.94 690.772C1070.09 689.022 1066.4 688.862 1063.68 690.331C1060.96 691.804 1059.43 694.78 1059.43 698.612Z" fill="#FF5555"/>
<path d="M398.332 293.663C388.883 296.011 379.57 302.222 372.473 310.921L372.453 310.952C371.84 311.69 371.25 312.452 370.691 313.233L350.523 339.261L338.5 368.393L360.453 340.054L358.863 367.03C356.492 407.151 374.641 439.132 406.473 450.913L528.531 496.061L567.492 553.163L564.203 608.851L586.16 580.522L589.812 518.733L593.613 520.132C601.023 522.87 602.563 537.663 611.352 533.472L607.23 539.542L621.75 526.792C633.152 517.343 648.102 487.69 648.891 474.311L650.492 447.343C652.863 407.21 634.711 375.241 602.871 363.46L415.742 294.241C410.551 292.323 404.551 292.12 398.332 293.663Z" fill="#FF5555"/>
<path d="M376.371 322.003C366.922 324.343 357.621 330.554 350.512 339.261C343.402 347.96 339.082 358.44 338.492 368.382L336.902 395.362C334.524 435.491 352.672 467.46 384.512 479.241L506.57 524.393L564.203 608.85L567.852 547.061L571.652 548.46C582.262 552.393 595.82 548.983 607.223 539.53C618.633 530.081 626.141 516.022 626.93 502.651L628.531 475.671C630.902 435.542 612.75 403.573 580.91 391.792L393.781 322.573C388.59 320.651 382.582 320.452 376.371 322.003Z" fill="#FF8080"/>
<path d="M394.39 369.292L480.961 402.683C489 405.781 495.113 409.343 494.66 410.671L494.082 412.382C493.64 413.702 486.801 412.273 478.762 409.171L392.203 375.792C384.152 372.683 378.043 369.12 378.492 367.792L379.07 366.081C379.523 364.761 386.351 366.191 394.39 369.292Z" fill="white"/>
<path d="M408.34 403.6L553.731 459.682C567.231 464.893 577.742 470.151 577.301 471.472L576.723 473.182C576.274 474.511 565.043 471.382 551.531 466.171L406.153 410.1C392.641 404.893 382.133 399.632 382.582 398.304L383.16 396.593C383.613 395.272 394.84 398.393 408.34 403.6Z" fill="white"/>
<path d="M378.524 418.691L486.282 460.253C496.293 464.113 503.993 468.292 503.543 469.613L502.961 471.324C502.524 472.652 494.102 470.613 484.09 466.753L376.321 425.183C366.313 421.324 358.622 417.152 359.063 415.824L359.641 414.113C360.09 412.792 368.512 414.831 378.524 418.691Z" fill="white"/>
<path d="M520.524 416.37L571.582 436.073C576.332 437.901 579.782 440.44 579.34 441.761L578.762 443.472C578.313 444.804 574.133 444.393 569.391 442.561L518.332 422.87C513.582 421.042 510.133 418.503 510.582 417.171L511.153 415.472C511.602 414.143 515.782 414.542 520.524 416.37Z" fill="white"/>
<path d="M520.84 472.804L547.523 483.093C550 484.042 551.633 485.882 551.191 487.21L550.613 488.921C550.16 490.241 547.801 490.542 545.332 489.593L518.64 479.292C516.16 478.343 514.531 476.503 514.973 475.171L515.551 473.46C516 472.143 518.363 471.843 520.84 472.804Z" fill="white"/>
<path d="M341.48 1.02237C332.031 3.37002 322.73 9.58096 315.621 18.2919L315.613 18.3231C315 19.0614 314.41 19.8231 313.84 20.5927L293.672 46.6317L281.66 75.7607L303.613 47.4208L302.023 74.3935C299.641 114.522 317.793 146.503 349.633 158.272L471.691 203.421L510.652 260.53L507.363 316.222L529.32 287.882L532.973 226.093L536.773 227.503C544.18 230.241 545.723 245.022 554.512 240.843L550.391 246.901L564.902 234.151C576.313 224.702 591.262 195.054 592.051 181.683L593.652 154.702C596.023 114.581 577.871 82.6005 546.031 70.8232L358.902 1.60049C353.711 -0.317478 347.703 -0.516697 341.492 1.03018" fill="#162D50"/>
<path d="M319.531 29.3622C310.082 31.7099 300.773 37.9208 293.672 46.6201C286.562 55.331 282.242 65.8115 281.652 75.7529L280.051 102.733C277.679 142.851 295.832 174.831 327.672 186.612L449.73 231.761L507.351 316.222L511.011 254.421L514.801 255.831C525.422 259.753 538.98 256.351 550.383 246.901C561.781 237.452 569.301 223.393 570.09 210.011L571.679 183.042C574.062 142.913 555.91 110.933 524.07 99.163L336.941 29.9325C331.742 28.0107 325.742 27.8232 319.531 29.3622Z" fill="#5F8DD3"/>
<path d="M1000.85 910.702L1034.67 923.593L1000.92 960.753L967.113 947.862L1000.85 910.702Z" fill="white"/>
<path d="M1043.64 927.011L1077.46 939.894L1043.72 977.054L1009.9 964.171L1043.64 927.011Z" fill="white"/>
<path d="M1086.44 943.312L1120.25 956.19L1086.51 993.354L1052.69 980.472L1086.44 943.312Z" fill="white"/>
<path d="M1129.23 959.612L1163.04 972.491L1129.3 1009.66L1095.48 996.772L1129.23 959.612Z" fill="white"/>
<defs>
<linearGradient id="paint0_linear_556_712" x1="1266.45" y1="414.073" x2="488.653" y2="813.052" gradientUnits="userSpaceOnUse">
<stop stop-color="white"/>
<stop offset="0.03125" stop-color="white"/>
<stop offset="0.0625" stop-color="#FFFEFE"/>
<stop offset="0.09375" stop-color="#FFFDFE"/>
<stop offset="0.125" stop-color="#FFFDFD"/>
<stop offset="0.15625" stop-color="#FFFCFD"/>
<stop offset="0.1875" stop-color="#FFFBFD"/>
<stop offset="0.21875" stop-color="#FFFAFC"/>
<stop offset="0.25" stop-color="#FFFAFC"/>
<stop offset="0.28125" stop-color="#FFF9FB"/>
<stop offset="0.3125" stop-color="#FFF8FB"/>
<stop offset="0.34375" stop-color="#FFF7FA"/>
<stop offset="0.375" stop-color="#FFF7FA"/>
<stop offset="0.40625" stop-color="#FFF6F9"/>
<stop offset="0.4375" stop-color="#FFF5F9"/>
<stop offset="0.46875" stop-color="#FFF4F8"/>
<stop offset="0.5" stop-color="#FFF4F8"/>
<stop offset="0.53125" stop-color="#FFF3F8"/>
<stop offset="0.5625" stop-color="#FFF2F7"/>
<stop offset="0.59375" stop-color="#FFF1F7"/>
<stop offset="0.625" stop-color="#FFF1F6"/>
<stop offset="0.65625" stop-color="#FFF0F6"/>
<stop offset="0.6875" stop-color="#FFEFF5"/>
<stop offset="0.71875" stop-color="#FFEFF5"/>
<stop offset="0.75" stop-color="#FFEEF4"/>
<stop offset="0.78125" stop-color="#FFEDF4"/>
<stop offset="0.8125" stop-color="#FFECF3"/>
<stop offset="0.84375" stop-color="#FFECF3"/>
<stop offset="0.875" stop-color="#FFEBF3"/>
<stop offset="0.90625" stop-color="#FFEAF2"/>
<stop offset="0.9375" stop-color="#FFE9F2"/>
<stop offset="0.96875" stop-color="#FFE9F1"/>
<stop offset="1" stop-color="#FFE8F1"/>
</linearGradient>
</defs>
</svg>
