<?xml version="1.0" encoding="UTF-8"?>
<svg xmlns="http://www.w3.org/2000/svg" xmlns:xlink="http://www.w3.org/1999/xlink" width="3750" height="2501.25" viewBox="0 0 3750 2501.25">
<defs>
<linearGradient id="linear-pattern-0" gradientUnits="userSpaceOnUse" x1="-0.0000000528" y1="0" x2="1" y2="0" gradientTransform="matrix(3750, 0, 0, -3750, 0.000198, 1250.63)">
<stop offset="0" stop-color="rgb(0%, 0%, 25.097656%)" stop-opacity="1"/>
<stop offset="0.0078125" stop-color="rgb(0%, 0%, 25.282288%)" stop-opacity="1"/>
<stop offset="0.015625" stop-color="rgb(0%, 0%, 25.65155%)" stop-opacity="1"/>
<stop offset="0.0234375" stop-color="rgb(0%, 0%, 26.020813%)" stop-opacity="1"/>
<stop offset="0.03125" stop-color="rgb(0%, 0%, 26.390076%)" stop-opacity="1"/>
<stop offset="0.0390625" stop-color="rgb(0%, 0%, 26.760864%)" stop-opacity="1"/>
<stop offset="0.046875" stop-color="rgb(0%, 0%, 27.130127%)" stop-opacity="1"/>
<stop offset="0.0546875" stop-color="rgb(0%, 0%, 27.49939%)" stop-opacity="1"/>
<stop offset="0.0625" stop-color="rgb(0%, 0%, 27.870178%)" stop-opacity="1"/>
<stop offset="0.0703125" stop-color="rgb(0%, 0%, 28.239441%)" stop-opacity="1"/>
<stop offset="0.078125" stop-color="rgb(0%, 0%, 28.608704%)" stop-opacity="1"/>
<stop offset="0.0859375" stop-color="rgb(0%, 0%, 28.977966%)" stop-opacity="1"/>
<stop offset="0.09375" stop-color="rgb(0%, 0%, 29.348755%)" stop-opacity="1"/>
<stop offset="0.101562" stop-color="rgb(0%, 0%, 29.718018%)" stop-opacity="1"/>
<stop offset="0.109375" stop-color="rgb(0%, 0%, 30.08728%)" stop-opacity="1"/>
<stop offset="0.117187" stop-color="rgb(0%, 0%, 30.456543%)" stop-opacity="1"/>
<stop offset="0.125" stop-color="rgb(0%, 0%, 30.827332%)" stop-opacity="1"/>
<stop offset="0.132812" stop-color="rgb(0%, 0%, 31.196594%)" stop-opacity="1"/>
<stop offset="0.140625" stop-color="rgb(0%, 0%, 31.565857%)" stop-opacity="1"/>
<stop offset="0.148438" stop-color="rgb(0%, 0%, 31.93512%)" stop-opacity="1"/>
<stop offset="0.15625" stop-color="rgb(0%, 0%, 32.305908%)" stop-opacity="1"/>
<stop offset="0.164062" stop-color="rgb(0%, 0%, 32.675171%)" stop-opacity="1"/>
<stop offset="0.171875" stop-color="rgb(0%, 0%, 33.044434%)" stop-opacity="1"/>
<stop offset="0.179688" stop-color="rgb(0%, 0%, 33.413696%)" stop-opacity="1"/>
<stop offset="0.1875" stop-color="rgb(0%, 0%, 33.784485%)" stop-opacity="1"/>
<stop offset="0.195312" stop-color="rgb(0%, 0%, 34.153748%)" stop-opacity="1"/>
<stop offset="0.203125" stop-color="rgb(0%, 0%, 34.52301%)" stop-opacity="1"/>
<stop offset="0.210938" stop-color="rgb(0%, 0%, 34.892273%)" stop-opacity="1"/>
<stop offset="0.21875" stop-color="rgb(0%, 0%, 35.263062%)" stop-opacity="1"/>
<stop offset="0.226562" stop-color="rgb(0%, 0%, 35.632324%)" stop-opacity="1"/>
<stop offset="0.234375" stop-color="rgb(0%, 0%, 35.960388%)" stop-opacity="1"/>
<stop offset="0.25" stop-color="rgb(0%, 0%, 36.192322%)" stop-opacity="1"/>
<stop offset="0.28125" stop-color="rgb(0%, 0%, 36.459351%)" stop-opacity="1"/>
<stop offset="0.3125" stop-color="rgb(0%, 0%, 36.81488%)" stop-opacity="1"/>
<stop offset="0.34375" stop-color="rgb(0%, 0%, 37.17041%)" stop-opacity="1"/>
<stop offset="0.375" stop-color="rgb(0%, 0%, 37.52594%)" stop-opacity="1"/>
<stop offset="0.40625" stop-color="rgb(0%, 0%, 37.882996%)" stop-opacity="1"/>
<stop offset="0.4375" stop-color="rgb(0%, 0%, 38.238525%)" stop-opacity="1"/>
<stop offset="0.46875" stop-color="rgb(0%, 0%, 38.594055%)" stop-opacity="1"/>
<stop offset="0.5" stop-color="rgb(0%, 0%, 38.949585%)" stop-opacity="1"/>
<stop offset="0.515625" stop-color="rgb(0%, 0%, 39.050293%)" stop-opacity="1"/>
<stop offset="0.523438" stop-color="rgb(0%, 0%, 38.85498%)" stop-opacity="1"/>
<stop offset="0.53125" stop-color="rgb(0%, 0%, 38.619995%)" stop-opacity="1"/>
<stop offset="0.539062" stop-color="rgb(0%, 0%, 38.38501%)" stop-opacity="1"/>
<stop offset="0.546875" stop-color="rgb(0%, 0%, 38.148499%)" stop-opacity="1"/>
<stop offset="0.554688" stop-color="rgb(0%, 0%, 37.913513%)" stop-opacity="1"/>
<stop offset="0.5625" stop-color="rgb(0%, 0%, 37.678528%)" stop-opacity="1"/>
<stop offset="0.570312" stop-color="rgb(0%, 0%, 37.443542%)" stop-opacity="1"/>
<stop offset="0.578125" stop-color="rgb(0%, 0%, 37.207031%)" stop-opacity="1"/>
<stop offset="0.585938" stop-color="rgb(0%, 0%, 36.972046%)" stop-opacity="1"/>
<stop offset="0.59375" stop-color="rgb(0%, 0%, 36.737061%)" stop-opacity="1"/>
<stop offset="0.601562" stop-color="rgb(0%, 0%, 36.502075%)" stop-opacity="1"/>
<stop offset="0.609375" stop-color="rgb(0%, 0%, 36.265564%)" stop-opacity="1"/>
<stop offset="0.617188" stop-color="rgb(0%, 0%, 36.030579%)" stop-opacity="1"/>
<stop offset="0.625" stop-color="rgb(0%, 0%, 35.795593%)" stop-opacity="1"/>
<stop offset="0.632812" stop-color="rgb(0%, 0%, 35.560608%)" stop-opacity="1"/>
<stop offset="0.640625" stop-color="rgb(0%, 0%, 35.324097%)" stop-opacity="1"/>
<stop offset="0.648438" stop-color="rgb(0%, 0%, 35.089111%)" stop-opacity="1"/>
<stop offset="0.65625" stop-color="rgb(0%, 0%, 34.854126%)" stop-opacity="1"/>
<stop offset="0.664062" stop-color="rgb(0%, 0%, 34.619141%)" stop-opacity="1"/>
<stop offset="0.671875" stop-color="rgb(0%, 0%, 34.382629%)" stop-opacity="1"/>
<stop offset="0.679688" stop-color="rgb(0%, 0%, 34.147644%)" stop-opacity="1"/>
<stop offset="0.6875" stop-color="rgb(0%, 0%, 33.912659%)" stop-opacity="1"/>
<stop offset="0.695312" stop-color="rgb(0%, 0%, 33.677673%)" stop-opacity="1"/>
<stop offset="0.703125" stop-color="rgb(0%, 0%, 33.441162%)" stop-opacity="1"/>
<stop offset="0.710938" stop-color="rgb(0%, 0%, 33.206177%)" stop-opacity="1"/>
<stop offset="0.71875" stop-color="rgb(0%, 0%, 32.971191%)" stop-opacity="1"/>
<stop offset="0.726562" stop-color="rgb(0%, 0%, 32.736206%)" stop-opacity="1"/>
<stop offset="0.734375" stop-color="rgb(0%, 0%, 32.499695%)" stop-opacity="1"/>
<stop offset="0.742188" stop-color="rgb(0%, 0%, 32.264709%)" stop-opacity="1"/>
<stop offset="0.75" stop-color="rgb(0%, 0%, 32.029724%)" stop-opacity="1"/>
<stop offset="0.757812" stop-color="rgb(0%, 0%, 31.794739%)" stop-opacity="1"/>
<stop offset="0.765625" stop-color="rgb(0%, 0%, 31.558228%)" stop-opacity="1"/>
<stop offset="0.773438" stop-color="rgb(0%, 0%, 31.330872%)" stop-opacity="1"/>
<stop offset="0.78125" stop-color="rgb(0%, 0%, 31.117249%)" stop-opacity="1"/>
<stop offset="0.789062" stop-color="rgb(0%, 0%, 30.905151%)" stop-opacity="1"/>
<stop offset="0.796875" stop-color="rgb(0%, 0%, 30.69458%)" stop-opacity="1"/>
<stop offset="0.804688" stop-color="rgb(0%, 0%, 30.484009%)" stop-opacity="1"/>
<stop offset="0.8125" stop-color="rgb(0%, 0%, 30.271912%)" stop-opacity="1"/>
<stop offset="0.820312" stop-color="rgb(0%, 0%, 30.06134%)" stop-opacity="1"/>
<stop offset="0.828125" stop-color="rgb(0%, 0%, 29.849243%)" stop-opacity="1"/>
<stop offset="0.835938" stop-color="rgb(0%, 0%, 29.638672%)" stop-opacity="1"/>
<stop offset="0.84375" stop-color="rgb(0%, 0%, 29.426575%)" stop-opacity="1"/>
<stop offset="0.851562" stop-color="rgb(0%, 0%, 29.216003%)" stop-opacity="1"/>
<stop offset="0.859375" stop-color="rgb(0%, 0%, 29.003906%)" stop-opacity="1"/>
<stop offset="0.867188" stop-color="rgb(0%, 0%, 28.793335%)" stop-opacity="1"/>
<stop offset="0.875" stop-color="rgb(0%, 0%, 28.582764%)" stop-opacity="1"/>
<stop offset="0.882812" stop-color="rgb(0%, 0%, 28.370667%)" stop-opacity="1"/>
<stop offset="0.890625" stop-color="rgb(0%, 0%, 28.160095%)" stop-opacity="1"/>
<stop offset="0.898438" stop-color="rgb(0%, 0%, 27.947998%)" stop-opacity="1"/>
<stop offset="0.90625" stop-color="rgb(0%, 0%, 27.737427%)" stop-opacity="1"/>
<stop offset="0.914062" stop-color="rgb(0%, 0%, 27.52533%)" stop-opacity="1"/>
<stop offset="0.921875" stop-color="rgb(0%, 0%, 27.314758%)" stop-opacity="1"/>
<stop offset="0.929688" stop-color="rgb(0%, 0%, 27.104187%)" stop-opacity="1"/>
<stop offset="0.9375" stop-color="rgb(0%, 0%, 26.89209%)" stop-opacity="1"/>
<stop offset="0.945312" stop-color="rgb(0%, 0%, 26.681519%)" stop-opacity="1"/>
<stop offset="0.953125" stop-color="rgb(0%, 0%, 26.469421%)" stop-opacity="1"/>
<stop offset="0.960938" stop-color="rgb(0%, 0%, 26.25885%)" stop-opacity="1"/>
<stop offset="0.96875" stop-color="rgb(0%, 0%, 26.046753%)" stop-opacity="1"/>
<stop offset="0.976562" stop-color="rgb(0%, 0%, 25.836182%)" stop-opacity="1"/>
<stop offset="0.984375" stop-color="rgb(0%, 0%, 25.62561%)" stop-opacity="1"/>
<stop offset="0.992188" stop-color="rgb(0%, 0%, 25.413513%)" stop-opacity="1"/>
<stop offset="1" stop-color="rgb(0%, 0%, 25.202942%)" stop-opacity="1"/>
</linearGradient>
</defs>
<path fill-rule="nonzero" fill="url(#linear-pattern-0)" d="M 0 2501.25 L 0 0 L 3750 0 L 3750 2501.25 Z M 0 2501.25 "/>
<path fill-rule="nonzero" fill="rgb(33.325195%, 59.959412%, 100%)" fill-opacity="1" d="M 1364.871094 973.851562 L 1364.871094 1087.511719 C 1364.730469 1099.148438 1374.121094 1108.660156 1385.761719 1108.660156 C 1397.398438 1108.660156 1406.789062 1099.148438 1406.648438 1087.511719 L 1406.648438 932.058594 L 1406.648438 970.269531 C 1406.921875 951.210938 1383.621094 941.769531 1370.550781 955.640625 C 1366.828125 959.589844 1364.789062 964.839844 1364.871094 970.269531 L 1364.871094 932.058594 L 1364.871094 973.851562 "/>
<path fill-rule="nonzero" fill="rgb(33.325195%, 59.959412%, 100%)" fill-opacity="1" d="M 1364.871094 802.699219 L 1364.871094 916.371094 C 1364.730469 928 1374.121094 937.511719 1385.761719 937.511719 C 1397.398438 937.511719 1406.789062 928 1406.648438 916.371094 L 1406.648438 760.921875 L 1406.648438 799.121094 C 1406.921875 780.070312 1383.621094 770.628906 1370.550781 784.5 C 1366.828125 788.449219 1364.789062 793.691406 1364.871094 799.121094 L 1364.871094 760.921875 L 1364.871094 802.699219 "/>
<path fill-rule="nonzero" fill="rgb(33.325195%, 59.959412%, 100%)" fill-opacity="1" d="M 2216.511719 954.980469 L 2216.511719 1084.800781 C 2216.371094 1096.441406 2225.761719 1105.949219 2237.398438 1105.949219 C 2249.039062 1105.949219 2258.429688 1096.441406 2258.289062 1084.808594 L 2258.289062 799.53125 C 2258.558594 780.480469 2235.261719 771.039062 2222.191406 784.910156 C 2218.46875 788.859375 2216.429688 794.101562 2216.511719 799.53125 L 2216.511719 954.980469 "/>
<path fill-rule="nonzero" fill="rgb(33.325195%, 59.959412%, 100%)" fill-opacity="1" d="M 1466.679688 544.179688 L 2158.628906 544.179688 C 2205.320312 544.179688 2242.898438 588.679688 2242.898438 643.960938 L 2242.898438 2126.097656 C 2242.898438 2181.375 2205.320312 2225.875 2158.628906 2225.875 L 1466.679688 2225.875 C 1419.988281 2225.875 1382.410156 2181.375 1382.410156 2126.097656 L 1382.410156 643.960938 C 1382.410156 588.679688 1419.988281 544.179688 1466.679688 544.179688 "/>
<path fill-rule="nonzero" fill="rgb(100%, 100%, 100%)" fill-opacity="1" d="M 1491.609375 575.140625 L 2133.699219 575.140625 C 2177.019531 575.140625 2211.898438 618 2211.898438 671.238281 L 2211.898438 2098.8125 C 2211.898438 2152.054688 2177.019531 2194.914062 2133.699219 2194.914062 L 1491.609375 2194.914062 C 1448.289062 2194.914062 1413.410156 2152.054688 1413.410156 2098.8125 L 1413.410156 671.238281 C 1413.410156 618 1448.289062 575.140625 1491.609375 575.140625 "/>
<path fill-rule="nonzero" fill="rgb(0%, 0%, 0%)" fill-opacity="1" d="M 1840.898438 635.871094 C 1840.898438 651.46875 1828.261719 664.121094 1812.660156 664.121094 C 1805.160156 664.121094 1797.980469 661.148438 1792.679688 655.851562 C 1787.378906 650.550781 1784.410156 643.371094 1784.410156 635.871094 C 1784.410156 628.378906 1787.378906 621.199219 1792.679688 615.898438 C 1797.980469 610.601562 1805.160156 607.628906 1812.660156 607.628906 C 1828.261719 607.628906 1840.898438 620.269531 1840.898438 635.871094 "/>
<path fill-rule="nonzero" fill="rgb(94.921875%, 94.921875%, 94.921875%)" fill-opacity="1" d="M 2088.171875 1847.292969 L 1486.480469 1845.585938 C 1474 1845.546875 1463.960938 1854.644531 1463.980469 1865.972656 L 1464.421875 1949.835938 C 1464.429688 1961.164062 1474.488281 1970.3125 1486.980469 1970.347656 L 2088.671875 1972.054688 C 2101.148438 1972.09375 2111.179688 1962.996094 2111.171875 1951.667969 L 2110.730469 1867.804688 C 2110.71875 1856.476562 2100.648438 1847.328125 2088.171875 1847.292969 "/>
<path fill-rule="nonzero" fill="rgb(33.325195%, 59.959412%, 100%)" fill-opacity="1" d="M 1561.511719 1987.472656 L 2116.378906 1987.472656 C 2140.640625 1988.230469 2144.429688 1955.828125 2116.378906 1953.453125 L 1558.378906 1953.453125 C 1542.371094 1953.453125 1518.46875 1952.277344 1507.660156 1949.929688 C 1496.980469 1947.496094 1488.648438 1943.234375 1482.660156 1937.144531 C 1476.800781 1931.054688 1473.871094 1917.796875 1473.871094 1906.835938 C 1473.871094 1891.699219 1479.859375 1876.265625 1491.839844 1870.003906 C 1503.949219 1863.742188 1532.730469 1860.609375 1557.210938 1860.609375 L 2116.378906 1860.609375 C 2145.929688 1856.753906 2137.96875 1826.25 2116.378906 1826.59375 L 1561.511719 1826.59375 C 1530.359375 1826.933594 1487.230469 1827.621094 1465.988281 1845.996094 C 1457.011719 1853.777344 1449.328125 1862.515625 1444.898438 1871.738281 C 1440.46875 1880.957031 1438.261719 1891.742188 1438.261719 1904.097656 C 1438.261719 1918.796875 1440.601562 1931.453125 1445.289062 1942.066406 C 1450.109375 1952.675781 1457.460938 1961.332031 1467.359375 1968.03125 C 1477.390625 1974.726562 1490.148438 1979.644531 1505.640625 1982.773438 C 1521.269531 1985.90625 1539.890625 1987.472656 1561.511719 1987.472656 "/>
<path fill-rule="nonzero" fill="rgb(100%, 50.193787%, 50.193787%)" fill-opacity="1" d="M 2160.148438 1689.570312 L 1568.570312 1687.628906 C 1555.480469 1687.578125 1544.949219 1697.941406 1544.96875 1710.84375 L 1545.429688 1806.34375 C 1545.449219 1819.246094 1556 1829.664062 1569.101562 1829.703125 L 2160.671875 1831.648438 C 2173.769531 1831.691406 2184.289062 1821.332031 2184.28125 1808.429688 L 2183.808594 1712.929688 C 2183.800781 1700.027344 2173.238281 1689.609375 2160.148438 1689.570312 "/>
<path fill="none" stroke-width="170.209" stroke-linecap="square" stroke-linejoin="round" stroke="rgb(100%, 100%, 100%)" stroke-opacity="1" stroke-miterlimit="4" d="M 16135.390625 7416.132812 C 16135.390625 7208.75 16303.515625 7040.625 16510.898438 7040.625 C 16718.28125 7040.625 16886.40625 7208.75 16886.40625 7416.132812 C 16886.40625 7623.515625 16718.28125 7791.640625 16510.898438 7791.640625 C 16303.515625 7791.640625 16135.390625 7623.515625 16135.390625 7416.132812 Z M 16135.390625 7416.132812 " transform="matrix(0.1, 0, 0, -0.1, 0, 2501.25)"/>
<path fill-rule="nonzero" fill="rgb(100%, 100%, 100%)" fill-opacity="1" d="M 2025.140625 1706.136719 C 2020.011719 1708.417969 2016.75 1713.542969 2016.851562 1719.152344 C 2017.070312 1785.53125 2016.210938 1733.664062 2016.441406 1800.238281 C 2016.390625 1805.273438 2019.058594 1809.941406 2023.421875 1812.464844 C 2027.78125 1814.984375 2033.148438 1814.964844 2037.5 1812.414062 C 2041.839844 1809.863281 2044.46875 1805.175781 2044.390625 1800.140625 C 2044.160156 1733.757812 2045.019531 1785.628906 2044.789062 1719.058594 C 2044.839844 1714.300781 2042.46875 1709.84375 2038.5 1707.230469 C 2034.519531 1704.617188 2029.488281 1704.203125 2025.140625 1706.136719 "/>
<path fill-rule="nonzero" fill="rgb(100%, 100%, 100%)" fill-opacity="1" d="M 2072.410156 1706.136719 C 2067.28125 1708.417969 2064.019531 1713.542969 2064.121094 1719.152344 C 2064.339844 1785.53125 2063.480469 1733.664062 2063.710938 1800.238281 C 2063.660156 1805.273438 2066.328125 1809.941406 2070.691406 1812.464844 C 2075.050781 1814.984375 2080.429688 1814.964844 2084.769531 1812.414062 C 2089.109375 1809.863281 2091.738281 1805.175781 2091.660156 1800.140625 C 2091.429688 1733.757812 2092.289062 1785.628906 2092.058594 1719.058594 C 2092.121094 1714.300781 2089.738281 1709.84375 2085.769531 1707.230469 C 2081.789062 1704.617188 2076.761719 1704.203125 2072.410156 1706.136719 "/>
<path fill-rule="nonzero" fill="rgb(100%, 100%, 100%)" fill-opacity="1" d="M 1977.871094 1706.136719 C 1972.738281 1708.417969 1969.480469 1713.542969 1969.570312 1719.152344 C 1969.800781 1785.53125 1968.941406 1733.664062 1969.171875 1800.238281 C 1969.121094 1805.273438 1971.789062 1809.941406 1976.148438 1812.464844 C 1980.511719 1814.984375 1985.878906 1814.964844 1990.21875 1812.414062 C 1994.570312 1809.863281 1997.199219 1805.175781 1997.121094 1800.140625 C 1996.890625 1733.757812 1997.75 1785.628906 1997.519531 1719.058594 C 1997.570312 1714.300781 1995.199219 1709.84375 1991.21875 1707.230469 C 1987.25 1704.617188 1982.21875 1704.203125 1977.871094 1706.136719 "/>
<path fill-rule="nonzero" fill="rgb(96.875%, 77.34375%, 37.646484%)" fill-opacity="1" d="M 1578.210938 2011.238281 L 1577.71875 1868.175781 C 1577.710938 1863.746094 1580.320312 1860.1875 1583.570312 1860.195312 L 1672.96875 1860.351562 C 1676.21875 1860.355469 1678.839844 1863.925781 1678.851562 1868.351562 L 1679.339844 2011.414062 C 1679.351562 2015.84375 1676.738281 2019.402344 1673.488281 2019.398438 L 1628.03125 1974.160156 L 1584.101562 2019.242188 C 1580.851562 2019.238281 1578.21875 2015.664062 1578.210938 2011.238281 "/>
<path fill-rule="nonzero" fill="rgb(96.875%, 77.34375%, 37.646484%)" fill-opacity="1" d="M 2051.691406 1589.917969 L 1491.25 1587.976562 C 1478.148438 1587.929688 1467.628906 1598.289062 1467.640625 1611.191406 L 1468.109375 1667.066406 C 1468.121094 1679.972656 1478.679688 1690.390625 1491.769531 1690.429688 L 2052.210938 1692.371094 C 2065.308594 1692.417969 2075.828125 1682.058594 2075.820312 1669.15625 L 2075.351562 1613.28125 C 2075.339844 1600.378906 2064.78125 1589.960938 2051.691406 1589.917969 "/>
<path fill-rule="nonzero" fill="rgb(100%, 100%, 100%)" fill-opacity="1" d="M 1985.128906 1609.648438 L 1900.261719 1608.800781 C 1895.949219 1608.78125 1892.480469 1613.296875 1892.480469 1618.917969 L 1892.628906 1660.523438 C 1892.640625 1666.144531 1896.121094 1670.683594 1900.429688 1670.699219 L 1985.300781 1671.546875 C 1989.621094 1671.566406 1993.089844 1667.054688 1993.078125 1661.433594 L 1992.929688 1619.824219 C 1992.929688 1614.203125 1989.441406 1609.664062 1985.128906 1609.648438 "/>
<path fill-rule="nonzero" fill="rgb(94.921875%, 94.921875%, 94.921875%)" fill-opacity="1" d="M 1605.828125 1475.949219 L 2099.878906 1474.550781 C 2110.128906 1474.519531 2118.371094 1481.988281 2118.351562 1491.289062 L 2117.988281 1560.152344 C 2117.980469 1569.453125 2109.71875 1576.96875 2099.46875 1576.996094 L 1605.421875 1578.398438 C 1595.171875 1578.429688 1586.929688 1570.960938 1586.941406 1561.65625 L 1587.300781 1492.800781 C 1587.308594 1483.5 1595.578125 1475.980469 1605.828125 1475.949219 "/>
<path fill-rule="nonzero" fill="rgb(100%, 50.193787%, 50.193787%)" fill-opacity="1" d="M 2038.269531 1591.054688 L 1582.660156 1591.054688 C 1562.738281 1591.679688 1559.628906 1565.070312 1582.660156 1563.125 L 2040.839844 1563.125 C 2053.988281 1563.125 2073.609375 1562.160156 2082.480469 1560.230469 C 2091.25 1558.230469 2098.089844 1554.730469 2103.011719 1549.730469 C 2107.820312 1544.730469 2110.230469 1533.84375 2110.230469 1524.847656 C 2110.230469 1512.417969 2105.308594 1499.75 2095.480469 1494.601562 C 2085.53125 1489.460938 2061.898438 1486.890625 2041.800781 1486.890625 L 1582.660156 1486.890625 C 1558.398438 1483.71875 1564.929688 1458.679688 1582.660156 1458.960938 L 2038.269531 1458.960938 C 2063.839844 1459.238281 2099.261719 1459.800781 2116.699219 1474.890625 C 2124.078125 1481.28125 2130.378906 1488.460938 2134.019531 1496.03125 C 2137.648438 1503.597656 2139.46875 1512.453125 2139.46875 1522.597656 C 2139.46875 1534.667969 2137.550781 1545.058594 2133.699219 1553.773438 C 2129.738281 1562.484375 2123.699219 1569.59375 2115.570312 1575.09375 C 2107.339844 1580.59375 2096.859375 1584.628906 2084.140625 1587.199219 C 2071.308594 1589.769531 2056.019531 1591.054688 2038.269531 1591.054688 "/>
<path fill-rule="nonzero" fill="rgb(33.325195%, 59.959412%, 100%)" fill-opacity="1" d="M 1222.640625 1807.804688 L 1244.660156 1819.003906 C 1255.839844 1824.679688 1260.058594 1838.105469 1254.128906 1849.105469 L 1004.351562 2312.429688 C 998.421875 2323.429688 984.652344 2327.714844 973.480469 2322.035156 L 951.449219 2310.839844 C 940.277344 2305.160156 936.058594 2291.734375 941.988281 2280.734375 L 1191.761719 1817.410156 C 1197.691406 1806.410156 1211.460938 1802.128906 1222.640625 1807.804688 "/>
<path fill-rule="nonzero" fill="rgb(33.325195%, 59.959412%, 100%)" fill-opacity="1" d="M 1365.710938 1229.488281 C 1245.910156 1232.398438 1130.199219 1297.941406 1069.910156 1409.78125 C 982.210938 1572.457031 1044.230469 1772.84375 1208.488281 1856.324219 C 1372.738281 1939.804688 1577.679688 1875.097656 1665.378906 1712.417969 C 1753.078125 1549.742188 1691.058594 1349.351562 1526.800781 1265.871094 C 1475.46875 1239.78125 1420.171875 1228.171875 1365.710938 1229.488281 Z M 1366.101562 1281.21875 C 1411.960938 1280.148438 1458.558594 1290.011719 1501.910156 1312.039062 C 1640.628906 1382.539062 1692.839844 1550.664062 1618.480469 1688.585938 C 1544.128906 1826.503906 1372.089844 1880.65625 1233.378906 1810.15625 C 1094.660156 1739.65625 1042.449219 1571.535156 1116.808594 1433.609375 C 1167.929688 1338.789062 1265.210938 1283.570312 1366.101562 1281.21875 "/>
<path fill-rule="nonzero" fill="rgb(96.875%, 77.34375%, 37.646484%)" fill-opacity="1" d="M 1161.320312 1903.074219 C 1096.089844 1877.585938 1078.53125 1970.050781 1052.898438 2007.347656 C 1011.429688 2096.378906 948.445312 2178.945312 917.664062 2271.261719 C 915.914062 2323.539062 1009.429688 2359.429688 1042.019531 2284.640625 C 1096.171875 2174.761719 1167.050781 2070.238281 1212.449219 1957.523438 C 1213.871094 1927.933594 1185.371094 1912.710938 1161.320312 1903.074219 "/>
<path fill-rule="nonzero" fill="rgb(96.875%, 77.34375%, 37.646484%)" fill-opacity="1" d="M 1672.519531 1141.148438 L 1953.449219 1141.148438 C 1960.839844 1141.148438 1966.78125 1145.761719 1966.78125 1151.488281 C 1966.78125 1151.488281 1894.941406 1259.78125 1896.480469 1318.238281 C 1897.839844 1370.269531 1728.039062 1373.488281 1729.488281 1318.238281 C 1730.941406 1262.988281 1659.179688 1151.488281 1659.179688 1151.488281 C 1659.179688 1151.488281 1665.128906 1141.148438 1672.519531 1141.148438 "/>
<path fill-rule="nonzero" fill="rgb(96.875%, 77.34375%, 37.646484%)" fill-opacity="1" d="M 1989.140625 1082.390625 C 1989.140625 1127.71875 1970.578125 1171.191406 1937.550781 1203.238281 C 1904.511719 1235.289062 1859.699219 1253.300781 1812.980469 1253.300781 C 1715.691406 1253.300781 1636.820312 1176.78125 1636.820312 1082.390625 C 1636.820312 988 1715.691406 911.46875 1812.980469 911.46875 C 1859.699219 911.46875 1904.511719 929.480469 1937.550781 961.53125 C 1970.578125 993.589844 1989.140625 1037.058594 1989.140625 1082.390625 "/>
<path fill-rule="nonzero" fill="rgb(98.4375%, 92.96875%, 76.951599%)" fill-opacity="1" d="M 2087.890625 927.691406 C 2085.96875 927.609375 2084.058594 927.96875 2082.308594 928.769531 C 2028.941406 951.980469 2070.761719 934.441406 2017.550781 957.589844 C 2013.480469 959.289062 2010.640625 963.050781 2010.128906 967.421875 C 2009.609375 971.800781 2011.480469 976.121094 2015.039062 978.71875 C 2018.601562 981.328125 2023.28125 981.808594 2027.289062 980 C 2080.660156 956.78125 2038.839844 974.320312 2092.050781 951.171875 C 2097.328125 948.960938 2100.371094 943.398438 2099.371094 937.769531 C 2098.371094 932.140625 2093.609375 927.949219 2087.890625 927.691406 "/>
<path fill-rule="nonzero" fill="rgb(98.4375%, 92.96875%, 76.951599%)" fill-opacity="1" d="M 1538.269531 922.648438 C 1532.390625 922.511719 1527.25 926.570312 1526.019531 932.320312 C 1524.800781 938.058594 1527.839844 943.871094 1533.261719 946.140625 C 1586.46875 969.289062 1544.648438 951.75 1598.019531 974.960938 C 1602.03125 976.78125 1606.710938 976.289062 1610.269531 973.691406 C 1613.828125 971.089844 1615.699219 966.769531 1615.191406 962.390625 C 1614.671875 958.019531 1611.828125 954.261719 1607.761719 952.558594 C 1554.550781 929.410156 1596.371094 946.949219 1543 923.730469 C 1541.511719 923.058594 1539.898438 922.691406 1538.269531 922.648438 "/>
<path fill-rule="nonzero" fill="rgb(98.4375%, 92.96875%, 76.951599%)" fill-opacity="1" d="M 1939.871094 765.410156 C 1935.140625 765.191406 1930.738281 767.828125 1928.699219 772.101562 C 1903.808594 822.261719 1922.738281 782.800781 1897.769531 833.109375 C 1895.839844 836.890625 1896.089844 841.421875 1898.421875 844.96875 C 1900.761719 848.519531 1904.820312 850.53125 1909.058594 850.25 C 1913.300781 849.960938 1917.050781 847.421875 1918.890625 843.589844 C 1943.789062 793.429688 1924.851562 832.878906 1949.820312 782.578125 C 1951.648438 779.011719 1951.550781 774.75 1949.53125 771.28125 C 1947.519531 767.800781 1943.878906 765.589844 1939.871094 765.410156 "/>
<path fill-rule="nonzero" fill="rgb(98.4375%, 92.96875%, 76.951599%)" fill-opacity="1" d="M 1678.800781 776.710938 C 1675 776.621094 1671.421875 778.539062 1669.398438 781.761719 C 1667.378906 784.988281 1667.199219 789.039062 1668.941406 792.429688 C 1691.789062 838.460938 1674.460938 802.359375 1697.238281 848.261719 C 1698.929688 851.75 1702.359375 854.070312 1706.238281 854.320312 C 1710.109375 854.578125 1713.820312 852.738281 1715.949219 849.5 C 1718.089844 846.261719 1718.320312 842.121094 1716.558594 838.671875 C 1693.71875 792.628906 1711.050781 828.738281 1688.269531 782.839844 C 1686.519531 779.179688 1682.859375 776.808594 1678.800781 776.710938 "/>
<path fill-rule="nonzero" fill="rgb(33.325195%, 59.959412%, 100%)" fill-opacity="1" d="M 1724.058594 1347.449219 C 1724.058594 1406.640625 1763.210938 1445.128906 1811.511719 1445.128906 C 1859.820312 1445.128906 1898.96875 1406.640625 1898.96875 1347.449219 C 1898.96875 1288.269531 1859.820312 1295.730469 1811.511719 1295.730469 C 1763.210938 1295.730469 1724.058594 1288.269531 1724.058594 1347.449219 "/>
<path fill-rule="nonzero" fill="rgb(33.325195%, 59.959412%, 100%)" fill-opacity="1" d="M 1736.769531 1336.859375 L 1888.539062 1336.859375 C 1901.238281 1336.859375 1911.460938 1346.191406 1911.460938 1357.789062 L 1911.460938 1360.25 C 1911.460938 1371.839844 1901.238281 1381.171875 1888.539062 1381.171875 L 1736.769531 1381.171875 C 1724.070312 1381.171875 1713.851562 1371.839844 1713.851562 1360.25 L 1713.851562 1357.789062 C 1713.851562 1346.191406 1724.070312 1336.859375 1736.769531 1336.859375 "/>
<path fill-rule="nonzero" fill="rgb(33.325195%, 59.959412%, 100%)" fill-opacity="1" d="M 1736.769531 1296.101562 L 1888.539062 1296.101562 C 1901.238281 1296.101562 1911.460938 1305.429688 1911.460938 1317.019531 L 1911.460938 1319.488281 C 1911.460938 1331.078125 1901.238281 1340.410156 1888.539062 1340.410156 L 1736.769531 1340.410156 C 1724.070312 1340.410156 1713.851562 1331.078125 1713.851562 1319.488281 L 1713.851562 1317.019531 C 1713.851562 1305.429688 1724.070312 1296.101562 1736.769531 1296.101562 "/>
<path fill-rule="nonzero" fill="rgb(33.325195%, 59.959412%, 100%)" fill-opacity="1" d="M 2486.941406 509.339844 C 2462.269531 565.699219 2414.46875 675.03125 2414.46875 675.03125 C 2327.019531 872.441406 1802.578125 643.339844 1887.308594 451.449219 C 1887.308594 451.449219 1912.421875 396.039062 1969.96875 264.53125 C 1984.679688 230.910156 2018.558594 226.378906 2049.570312 240.191406 C 2131.78125 276.78125 2370.558594 378.71875 2452.929688 414.769531 C 2482.261719 427.609375 2508.039062 461.101562 2498.148438 483.71875 L 2486.941406 509.339844 "/>
<path fill-rule="nonzero" fill="rgb(96.875%, 77.34375%, 37.646484%)" fill-opacity="1" d="M 2482.238281 703.46875 C 2462.699219 721.140625 2433.058594 756.5 2425.820312 781.808594 C 2418.578125 807.121094 2433.730469 822.378906 2449.25 829.039062 C 2464.78125 835.699219 2480.660156 833.769531 2492.800781 817.851562 C 2504.941406 801.929688 2513.320312 772.03125 2517.328125 747.699219 C 2521.351562 723.371094 2521 704.609375 2516.109375 695.21875 C 2511.21875 685.828125 2501.78125 685.808594 2482.238281 703.46875 "/>
<path fill-rule="nonzero" fill="rgb(33.325195%, 59.959412%, 100%)" fill-opacity="1" d="M 2707.859375 535.441406 L 2362.351562 153.070312 C 2349.75 139.128906 2324.210938 128.078125 2305.070312 128.289062 L 1791.019531 133.929688 C 1771.878906 134.140625 1766.621094 145.53125 1779.210938 159.46875 L 2124.71875 541.839844 C 2137.320312 555.78125 2162.859375 566.828125 2182 566.621094 L 2696.050781 560.980469 C 2715.191406 560.769531 2720.449219 549.378906 2707.859375 535.441406 "/>
<path fill-rule="nonzero" fill="rgb(96.875%, 77.34375%, 37.646484%)" fill-opacity="1" d="M 2568.46875 532.441406 L 2272.929688 339.121094 C 2267.480469 335.550781 2259.660156 335.78125 2256.089844 342.808594 C 2252.519531 349.828125 2254.96875 356.640625 2260.449219 360.179688 L 2557.058594 555.691406 L 2520.71875 637.488281 C 2520.71875 637.488281 2525.941406 664.28125 2543.339844 641.859375 C 2552.21875 630.421875 2571.859375 568.621094 2584.578125 553.480469 C 2589.648438 547.449219 2573.929688 536.019531 2568.46875 532.441406 "/>
<path fill-rule="nonzero" fill="rgb(96.875%, 77.34375%, 37.646484%)" fill-opacity="1" d="M 2279.570312 319.441406 C 2286.898438 326.429688 2291.199219 335.550781 2291.519531 344.800781 C 2291.839844 354.050781 2288.160156 362.679688 2281.28125 368.78125 C 2266.960938 381.480469 2242.980469 379.988281 2227.710938 365.441406 C 2212.441406 350.898438 2211.671875 328.808594 2225.988281 316.109375 C 2232.871094 310.011719 2242.371094 306.929688 2252.421875 307.558594 C 2262.46875 308.179688 2272.230469 312.460938 2279.570312 319.441406 "/>
<path fill-rule="nonzero" fill="rgb(96.875%, 77.34375%, 37.646484%)" fill-opacity="1" d="M 2545.789062 640.621094 C 2551.78125 646.800781 2555.089844 655.078125 2555.011719 663.628906 C 2554.921875 672.191406 2551.441406 680.320312 2545.328125 686.238281 C 2532.609375 698.558594 2512.191406 698.121094 2499.71875 685.25 C 2487.261719 672.378906 2487.460938 651.949219 2500.191406 639.628906 C 2506.300781 633.710938 2514.53125 630.488281 2523.089844 630.679688 C 2531.640625 630.859375 2539.808594 634.441406 2545.789062 640.621094 "/>
</svg>
