<?xml version="1.0" encoding="UTF-8"?>
<svg xmlns="http://www.w3.org/2000/svg" xmlns:xlink="http://www.w3.org/1999/xlink" width="3750" height="2501.25" viewBox="0 0 3750 2501.25">
<defs>
<linearGradient id="linear-pattern-0" gradientUnits="userSpaceOnUse" x1="0.34715" y1="0" x2="0.870926" y2="0" gradientTransform="matrix(-7357.64, -327.683, -327.683, 7357.64, 6358.07, 1405.52)">
<stop offset="0" stop-color="rgb(98.893738%, 93.260193%, 85.916138%)" stop-opacity="1"/>
<stop offset="0.03125" stop-color="rgb(98.867798%, 93.286133%, 86.045837%)" stop-opacity="1"/>
<stop offset="0.0625" stop-color="rgb(98.815918%, 93.339539%, 86.305237%)" stop-opacity="1"/>
<stop offset="0.09375" stop-color="rgb(98.764038%, 93.391418%, 86.566162%)" stop-opacity="1"/>
<stop offset="0.125" stop-color="rgb(98.712158%, 93.443298%, 86.827087%)" stop-opacity="1"/>
<stop offset="0.15625" stop-color="rgb(98.660278%, 93.495178%, 87.086487%)" stop-opacity="1"/>
<stop offset="0.1875" stop-color="rgb(98.608398%, 93.547058%, 87.347412%)" stop-opacity="1"/>
<stop offset="0.21875" stop-color="rgb(98.554993%, 93.598938%, 87.608337%)" stop-opacity="1"/>
<stop offset="0.25" stop-color="rgb(98.503113%, 93.650818%, 87.869263%)" stop-opacity="1"/>
<stop offset="0.28125" stop-color="rgb(98.451233%, 93.704224%, 88.128662%)" stop-opacity="1"/>
<stop offset="0.3125" stop-color="rgb(98.399353%, 93.756104%, 88.389587%)" stop-opacity="1"/>
<stop offset="0.34375" stop-color="rgb(98.347473%, 93.807983%, 88.650513%)" stop-opacity="1"/>
<stop offset="0.375" stop-color="rgb(98.295593%, 93.859863%, 88.909912%)" stop-opacity="1"/>
<stop offset="0.40625" stop-color="rgb(98.243713%, 93.911743%, 89.170837%)" stop-opacity="1"/>
<stop offset="0.4375" stop-color="rgb(98.190308%, 93.963623%, 89.431763%)" stop-opacity="1"/>
<stop offset="0.46875" stop-color="rgb(98.138428%, 94.015503%, 89.691162%)" stop-opacity="1"/>
<stop offset="0.5" stop-color="rgb(98.086548%, 94.068909%, 89.952087%)" stop-opacity="1"/>
<stop offset="0.53125" stop-color="rgb(98.072815%, 94.081116%, 90.019226%)" stop-opacity="1"/>
<stop offset="0.546875" stop-color="rgb(98.106384%, 94.047546%, 89.852905%)" stop-opacity="1"/>
<stop offset="0.5625" stop-color="rgb(98.147583%, 94.006348%, 89.64386%)" stop-opacity="1"/>
<stop offset="0.578125" stop-color="rgb(98.190308%, 93.963623%, 89.434814%)" stop-opacity="1"/>
<stop offset="0.59375" stop-color="rgb(98.231506%, 93.922424%, 89.225769%)" stop-opacity="1"/>
<stop offset="0.609375" stop-color="rgb(98.274231%, 93.881226%, 89.016724%)" stop-opacity="1"/>
<stop offset="0.625" stop-color="rgb(98.31543%, 93.838501%, 88.807678%)" stop-opacity="1"/>
<stop offset="0.640625" stop-color="rgb(98.356628%, 93.797302%, 88.598633%)" stop-opacity="1"/>
<stop offset="0.65625" stop-color="rgb(98.399353%, 93.754578%, 88.389587%)" stop-opacity="1"/>
<stop offset="0.671875" stop-color="rgb(98.440552%, 93.713379%, 88.180542%)" stop-opacity="1"/>
<stop offset="0.6875" stop-color="rgb(98.483276%, 93.67218%, 87.971497%)" stop-opacity="1"/>
<stop offset="0.703125" stop-color="rgb(98.524475%, 93.629456%, 87.762451%)" stop-opacity="1"/>
<stop offset="0.71875" stop-color="rgb(98.565674%, 93.588257%, 87.553406%)" stop-opacity="1"/>
<stop offset="0.734375" stop-color="rgb(98.608398%, 93.547058%, 87.34436%)" stop-opacity="1"/>
<stop offset="0.75" stop-color="rgb(98.649597%, 93.504333%, 87.135315%)" stop-opacity="1"/>
<stop offset="0.765625" stop-color="rgb(98.692322%, 93.463135%, 86.92627%)" stop-opacity="1"/>
<stop offset="0.78125" stop-color="rgb(98.733521%, 93.42041%, 86.717224%)" stop-opacity="1"/>
<stop offset="0.796875" stop-color="rgb(98.774719%, 93.379211%, 86.508179%)" stop-opacity="1"/>
<stop offset="0.8125" stop-color="rgb(98.817444%, 93.338013%, 86.299133%)" stop-opacity="1"/>
<stop offset="0.828125" stop-color="rgb(98.858643%, 93.295288%, 86.090088%)" stop-opacity="1"/>
<stop offset="0.84375" stop-color="rgb(98.901367%, 93.254089%, 85.881042%)" stop-opacity="1"/>
<stop offset="0.859375" stop-color="rgb(98.942566%, 93.211365%, 85.671997%)" stop-opacity="1"/>
<stop offset="0.875" stop-color="rgb(98.983765%, 93.170166%, 85.462952%)" stop-opacity="1"/>
<stop offset="0.890625" stop-color="rgb(99.026489%, 93.128967%, 85.253906%)" stop-opacity="1"/>
<stop offset="0.90625" stop-color="rgb(99.067688%, 93.086243%, 85.044861%)" stop-opacity="1"/>
<stop offset="0.921875" stop-color="rgb(99.108887%, 93.045044%, 84.835815%)" stop-opacity="1"/>
<stop offset="0.9375" stop-color="rgb(99.151611%, 93.002319%, 84.62677%)" stop-opacity="1"/>
<stop offset="0.953125" stop-color="rgb(99.19281%, 92.961121%, 84.417725%)" stop-opacity="1"/>
<stop offset="0.96875" stop-color="rgb(99.235535%, 92.919922%, 84.208679%)" stop-opacity="1"/>
<stop offset="0.984375" stop-color="rgb(99.276733%, 92.877197%, 83.999634%)" stop-opacity="1"/>
<stop offset="1" stop-color="rgb(99.317932%, 92.835999%, 83.790588%)" stop-opacity="1"/>
</linearGradient>
</defs>
<path fill-rule="nonzero" fill="url(#linear-pattern-0)" d="M 3861.175781 4.953125 L 3742.578125 2667.929688 L -111.175781 2496.296875 L 7.421875 -166.679688 Z M 3861.175781 4.953125 "/>
<path fill-rule="nonzero" fill="rgb(0%, 0%, 39.208984%)" fill-opacity="1" d="M 1426.820312 929.851562 L 1426.820312 1043.511719 C 1426.679688 1055.148438 1436.070312 1064.660156 1447.710938 1064.660156 C 1459.351562 1064.660156 1468.738281 1055.148438 1468.601562 1043.519531 L 1468.601562 888.070312 L 1468.601562 926.269531 C 1468.871094 907.210938 1445.578125 897.78125 1432.5 911.648438 C 1428.78125 915.601562 1426.738281 920.839844 1426.820312 926.269531 L 1426.820312 888.058594 L 1426.820312 929.851562 "/>
<path fill-rule="nonzero" fill="rgb(0%, 0%, 39.208984%)" fill-opacity="1" d="M 1426.820312 758.699219 L 1426.820312 872.371094 C 1426.679688 884.011719 1436.070312 893.511719 1447.710938 893.511719 C 1459.351562 893.519531 1468.738281 884.011719 1468.601562 872.371094 L 1468.601562 716.921875 L 1468.601562 755.128906 C 1468.871094 736.070312 1445.578125 726.628906 1432.5 740.5 C 1428.78125 744.449219 1426.738281 749.699219 1426.820312 755.121094 L 1426.820312 716.921875 L 1426.820312 758.699219 "/>
<path fill-rule="nonzero" fill="rgb(0%, 0%, 39.208984%)" fill-opacity="1" d="M 2278.460938 910.988281 L 2278.460938 1040.808594 C 2278.320312 1052.441406 2287.710938 1061.949219 2299.351562 1061.949219 C 2310.988281 1061.949219 2320.378906 1052.441406 2320.238281 1040.808594 L 2320.238281 755.539062 C 2320.511719 736.480469 2297.210938 727.039062 2284.140625 740.910156 C 2280.421875 744.859375 2278.378906 750.109375 2278.460938 755.53125 L 2278.460938 910.988281 "/>
<path fill-rule="nonzero" fill="rgb(0%, 0%, 39.208984%)" fill-opacity="1" d="M 1528.628906 500.191406 L 2220.578125 500.191406 C 2267.269531 500.191406 2304.859375 544.691406 2304.859375 599.960938 L 2304.859375 2082.101562 C 2304.859375 2137.378906 2267.269531 2181.878906 2220.578125 2181.878906 L 1528.628906 2181.878906 C 1481.949219 2181.878906 1444.359375 2137.378906 1444.359375 2082.101562 L 1444.359375 599.960938 C 1444.359375 544.691406 1481.949219 500.191406 1528.628906 500.191406 "/>
<path fill-rule="nonzero" fill="rgb(100%, 100%, 100%)" fill-opacity="1" d="M 1553.570312 531.148438 L 2195.648438 531.148438 C 2238.96875 531.148438 2273.851562 574.011719 2273.851562 627.25 L 2273.851562 2054.816406 C 2273.851562 2108.054688 2238.96875 2150.917969 2195.648438 2150.917969 L 1553.570312 2150.917969 C 1510.238281 2150.917969 1475.359375 2108.054688 1475.359375 2054.816406 L 1475.359375 627.25 C 1475.359375 574.011719 1510.238281 531.148438 1553.570312 531.148438 "/>
<path fill-rule="nonzero" fill="rgb(0%, 0%, 0%)" fill-opacity="1" d="M 1902.859375 591.878906 C 1902.859375 607.480469 1890.210938 620.121094 1874.609375 620.121094 C 1867.121094 620.121094 1859.929688 617.148438 1854.628906 611.851562 C 1849.339844 606.550781 1846.359375 599.371094 1846.359375 591.878906 C 1846.359375 584.390625 1849.339844 577.199219 1854.628906 571.898438 C 1859.929688 566.609375 1867.121094 563.628906 1874.609375 563.628906 C 1890.210938 563.628906 1902.859375 576.28125 1902.859375 591.878906 "/>
<path fill-rule="nonzero" fill="rgb(33.325195%, 59.959412%, 100%)" fill-opacity="1" d="M 2475.359375 490.789062 C 2450.691406 547.160156 2402.890625 656.488281 2402.890625 656.488281 C 2315.441406 853.890625 1791 624.800781 1875.738281 432.910156 C 1875.738281 432.910156 1900.839844 377.5 1958.390625 245.980469 C 1973.109375 212.359375 2006.980469 207.839844 2037.988281 221.640625 C 2120.199219 258.238281 2358.980469 360.179688 2441.359375 396.230469 C 2470.691406 409.058594 2496.46875 442.558594 2486.570312 465.171875 L 2475.359375 490.789062 "/>
<path fill-rule="nonzero" fill="rgb(96.875%, 77.34375%, 37.646484%)" fill-opacity="1" d="M 2470.660156 684.929688 C 2451.121094 702.601562 2421.488281 737.949219 2414.238281 763.269531 C 2407 788.570312 2422.160156 803.839844 2437.679688 810.5 C 2453.199219 817.160156 2469.089844 815.21875 2481.21875 799.300781 C 2493.359375 783.378906 2501.738281 753.480469 2505.761719 729.160156 C 2509.78125 704.828125 2509.429688 686.070312 2504.53125 676.679688 C 2499.640625 667.289062 2490.199219 667.261719 2470.660156 684.929688 "/>
<path fill-rule="nonzero" fill="rgb(33.325195%, 59.959412%, 100%)" fill-opacity="1" d="M 2696.28125 516.898438 L 2350.769531 134.53125 C 2338.179688 120.589844 2312.628906 109.539062 2293.488281 109.75 L 1779.441406 115.390625 C 1760.308594 115.601562 1755.039062 126.988281 1767.640625 140.929688 L 2113.148438 523.300781 C 2125.738281 537.238281 2151.289062 548.289062 2170.421875 548.078125 L 2684.46875 542.441406 C 2703.609375 542.230469 2708.878906 530.839844 2696.28125 516.898438 "/>
<path fill-rule="nonzero" fill="rgb(96.875%, 77.34375%, 37.646484%)" fill-opacity="1" d="M 2556.898438 513.898438 L 2261.359375 320.570312 C 2255.898438 317 2248.078125 317.238281 2244.519531 324.261719 C 2240.949219 331.28125 2243.390625 338.101562 2248.871094 341.640625 L 2545.480469 537.148438 L 2509.140625 618.949219 C 2509.140625 618.949219 2514.371094 645.738281 2531.769531 623.320312 C 2540.640625 611.878906 2560.28125 550.070312 2573.011719 534.941406 C 2578.070312 528.910156 2562.359375 517.46875 2556.898438 513.898438 "/>
<path fill-rule="nonzero" fill="rgb(96.875%, 77.34375%, 37.646484%)" fill-opacity="1" d="M 2267.988281 300.898438 C 2275.320312 307.878906 2279.621094 317 2279.949219 326.261719 C 2280.269531 335.511719 2276.589844 344.128906 2269.710938 350.230469 C 2255.390625 362.941406 2231.398438 361.449219 2216.128906 346.898438 C 2200.859375 332.359375 2200.089844 310.269531 2214.410156 297.558594 C 2221.289062 291.460938 2230.800781 288.390625 2240.851562 289.011719 C 2250.890625 289.640625 2260.660156 293.910156 2267.988281 300.898438 "/>
<path fill-rule="nonzero" fill="rgb(96.875%, 77.34375%, 37.646484%)" fill-opacity="1" d="M 2534.21875 622.078125 C 2540.199219 628.261719 2543.519531 636.539062 2543.429688 645.089844 C 2543.339844 653.648438 2539.859375 661.78125 2533.75 667.691406 C 2521.03125 680.019531 2500.609375 679.570312 2488.148438 666.699219 C 2475.679688 653.828125 2475.890625 633.410156 2488.609375 621.089844 C 2494.71875 615.171875 2502.960938 611.949219 2511.511719 612.140625 C 2520.058594 612.320312 2528.230469 615.898438 2534.21875 622.078125 "/>
<path fill-rule="nonzero" fill="rgb(94.921875%, 94.921875%, 94.921875%)" fill-opacity="1" d="M 2150.121094 1766.984375 L 1548.429688 1765.277344 C 1535.949219 1765.238281 1525.910156 1774.335938 1525.929688 1785.664062 L 1526.371094 1869.523438 C 1526.378906 1880.855469 1536.449219 1890.003906 1548.929688 1890.039062 L 2150.621094 1891.746094 C 2163.101562 1891.785156 2173.140625 1882.6875 2173.121094 1871.359375 L 2172.679688 1787.496094 C 2172.671875 1776.167969 2162.601562 1767.019531 2150.121094 1766.984375 "/>
<path fill-rule="nonzero" fill="rgb(33.325195%, 59.959412%, 100%)" fill-opacity="1" d="M 1623.460938 1907.160156 L 2178.328125 1907.160156 C 2202.601562 1907.921875 2206.378906 1875.519531 2178.328125 1873.144531 L 1620.328125 1873.144531 C 1604.320312 1873.144531 1580.421875 1871.972656 1569.609375 1869.621094 C 1558.929688 1867.1875 1550.601562 1862.925781 1544.609375 1856.835938 C 1538.75 1850.746094 1535.820312 1837.488281 1535.820312 1826.527344 C 1535.820312 1811.390625 1541.808594 1795.957031 1553.789062 1789.695312 C 1565.898438 1783.433594 1594.679688 1780.300781 1619.160156 1780.300781 L 2178.328125 1780.300781 C 2207.878906 1776.445312 2199.929688 1745.941406 2178.328125 1746.285156 L 1623.460938 1746.285156 C 1592.320312 1746.621094 1549.179688 1747.3125 1527.941406 1765.6875 C 1518.960938 1773.46875 1511.28125 1782.207031 1506.851562 1791.429688 C 1502.421875 1800.648438 1500.210938 1811.433594 1500.210938 1823.785156 C 1500.210938 1838.488281 1502.550781 1851.144531 1507.238281 1861.757812 C 1512.058594 1872.367188 1519.421875 1881.023438 1529.308594 1887.722656 C 1539.339844 1894.417969 1552.101562 1899.335938 1567.601562 1902.464844 C 1583.21875 1905.597656 1601.839844 1907.160156 1623.460938 1907.160156 "/>
<path fill-rule="nonzero" fill="rgb(100%, 50.193787%, 50.193787%)" fill-opacity="1" d="M 2222.101562 1609.261719 L 1630.53125 1607.316406 C 1617.429688 1607.269531 1606.898438 1617.632812 1606.921875 1630.535156 L 1607.378906 1726.035156 C 1607.398438 1738.9375 1617.960938 1749.355469 1631.050781 1749.394531 L 2222.621094 1751.339844 C 2235.71875 1751.382812 2246.25 1741.023438 2246.230469 1728.121094 L 2245.769531 1632.621094 C 2245.75 1619.71875 2235.191406 1609.300781 2222.101562 1609.261719 "/>
<path fill="none" stroke-width="170.209" stroke-linecap="square" stroke-linejoin="round" stroke="rgb(100%, 100%, 100%)" stroke-opacity="1" stroke-miterlimit="4" d="M 16754.882812 8219.21875 C 16754.882812 8011.835938 16923.085938 7843.710938 17130.390625 7843.710938 C 17337.8125 7843.710938 17505.898438 8011.835938 17505.898438 8219.21875 C 17505.898438 8426.601562 17337.8125 8594.726562 17130.390625 8594.726562 C 16923.085938 8594.726562 16754.882812 8426.601562 16754.882812 8219.21875 Z M 16754.882812 8219.21875 " transform="matrix(0.1, 0, 0, -0.1, 0, 2501.25)"/>
<path fill-rule="nonzero" fill="rgb(100%, 100%, 100%)" fill-opacity="1" d="M 2087.089844 1625.828125 C 2081.960938 1628.109375 2078.699219 1633.234375 2078.800781 1638.84375 C 2079.03125 1705.226562 2078.160156 1653.355469 2078.390625 1719.929688 C 2078.351562 1724.964844 2081.011719 1729.632812 2085.371094 1732.15625 C 2089.730469 1734.675781 2095.109375 1734.65625 2099.449219 1732.105469 C 2103.789062 1729.554688 2106.421875 1724.867188 2106.339844 1719.832031 C 2106.109375 1653.449219 2106.980469 1705.320312 2106.75 1638.746094 C 2106.800781 1633.988281 2104.421875 1629.535156 2100.449219 1626.921875 C 2096.46875 1624.308594 2091.441406 1623.894531 2087.089844 1625.828125 "/>
<path fill-rule="nonzero" fill="rgb(100%, 100%, 100%)" fill-opacity="1" d="M 2134.359375 1625.828125 C 2129.230469 1628.109375 2125.96875 1633.234375 2126.070312 1638.84375 C 2126.300781 1705.226562 2125.429688 1653.355469 2125.660156 1719.929688 C 2125.621094 1724.964844 2128.28125 1729.632812 2132.640625 1732.15625 C 2137 1734.675781 2142.378906 1734.65625 2146.71875 1732.105469 C 2151.058594 1729.554688 2153.691406 1724.867188 2153.609375 1719.832031 C 2153.378906 1653.449219 2154.25 1705.320312 2154.019531 1638.746094 C 2154.070312 1633.988281 2151.691406 1629.535156 2147.71875 1626.921875 C 2143.738281 1624.308594 2138.710938 1623.894531 2134.359375 1625.828125 "/>
<path fill-rule="nonzero" fill="rgb(100%, 100%, 100%)" fill-opacity="1" d="M 2039.820312 1625.828125 C 2034.691406 1628.109375 2031.429688 1633.234375 2031.53125 1638.84375 C 2031.761719 1705.226562 2030.890625 1653.355469 2031.121094 1719.929688 C 2031.070312 1724.964844 2033.738281 1729.632812 2038.101562 1732.15625 C 2042.460938 1734.675781 2047.839844 1734.65625 2052.179688 1732.105469 C 2056.519531 1729.554688 2059.148438 1724.867188 2059.070312 1719.832031 C 2058.839844 1653.449219 2059.699219 1705.320312 2059.480469 1638.746094 C 2059.53125 1633.988281 2057.148438 1629.535156 2053.179688 1626.921875 C 2049.199219 1624.308594 2044.171875 1623.894531 2039.820312 1625.828125 "/>
<path fill-rule="nonzero" fill="rgb(96.875%, 77.34375%, 37.646484%)" fill-opacity="1" d="M 1640.160156 1930.929688 L 1639.679688 1787.867188 C 1639.660156 1783.441406 1642.269531 1779.878906 1645.519531 1779.886719 L 1734.921875 1780.042969 C 1738.171875 1780.046875 1740.789062 1783.617188 1740.800781 1788.046875 L 1741.289062 1931.105469 C 1741.300781 1935.535156 1738.691406 1939.09375 1735.441406 1939.089844 L 1689.980469 1893.851562 L 1646.050781 1938.933594 C 1642.800781 1938.929688 1640.171875 1935.355469 1640.160156 1930.929688 "/>
<path fill-rule="nonzero" fill="rgb(96.875%, 77.34375%, 37.646484%)" fill-opacity="1" d="M 2113.640625 1509.609375 L 1553.199219 1507.667969 C 1540.109375 1507.621094 1529.578125 1517.980469 1529.589844 1530.882812 L 1530.058594 1586.757812 C 1530.070312 1599.660156 1540.628906 1610.082031 1553.71875 1610.121094 L 2114.160156 1612.0625 C 2127.261719 1612.109375 2137.789062 1601.75 2137.769531 1588.847656 L 2137.308594 1532.972656 C 2137.289062 1520.070312 2126.730469 1509.648438 2113.640625 1509.609375 "/>
<path fill-rule="nonzero" fill="rgb(100%, 100%, 100%)" fill-opacity="1" d="M 2047.078125 1529.339844 L 1962.210938 1528.492188 C 1957.898438 1528.472656 1954.429688 1532.988281 1954.429688 1538.609375 L 1954.589844 1580.214844 C 1954.589844 1585.835938 1958.070312 1590.375 1962.390625 1590.390625 L 2047.25 1591.238281 C 2051.570312 1591.257812 2055.039062 1586.746094 2055.03125 1581.125 L 2054.878906 1539.519531 C 2054.878906 1533.894531 2051.398438 1529.355469 2047.078125 1529.339844 "/>
<path fill-rule="nonzero" fill="rgb(94.921875%, 94.921875%, 94.921875%)" fill-opacity="1" d="M 1667.78125 1395.648438 L 2161.828125 1394.238281 C 2172.078125 1394.210938 2180.320312 1401.679688 2180.300781 1410.980469 L 2179.941406 1479.839844 C 2179.929688 1489.148438 2171.671875 1496.660156 2161.421875 1496.691406 L 1667.371094 1498.089844 C 1657.121094 1498.121094 1648.878906 1490.648438 1648.890625 1481.351562 L 1649.261719 1412.488281 C 1649.261719 1403.191406 1657.53125 1395.671875 1667.78125 1395.648438 "/>
<path fill-rule="nonzero" fill="rgb(100%, 50.193787%, 50.193787%)" fill-opacity="1" d="M 2100.21875 1510.746094 L 1644.621094 1510.746094 C 1624.691406 1511.371094 1621.578125 1484.761719 1644.621094 1482.820312 L 2102.789062 1482.820312 C 2115.941406 1482.820312 2135.558594 1481.851562 2144.441406 1479.921875 C 2153.199219 1477.921875 2160.050781 1474.421875 2164.960938 1469.421875 C 2169.78125 1464.421875 2172.179688 1453.539062 2172.179688 1444.539062 C 2172.179688 1432.109375 2167.261719 1419.441406 2157.429688 1414.289062 C 2147.480469 1409.148438 2123.851562 1406.578125 2103.75 1406.578125 L 1644.621094 1406.578125 C 1620.351562 1403.410156 1626.878906 1378.371094 1644.621094 1378.648438 L 2100.21875 1378.648438 C 2125.789062 1378.929688 2161.210938 1379.488281 2178.648438 1394.578125 C 2186.03125 1400.96875 2192.328125 1408.148438 2195.96875 1415.71875 C 2199.609375 1423.289062 2201.421875 1432.148438 2201.421875 1442.289062 C 2201.421875 1454.359375 2199.5 1464.75 2195.648438 1473.460938 C 2191.691406 1482.179688 2185.648438 1489.28125 2177.53125 1494.78125 C 2169.289062 1500.28125 2158.808594 1504.320312 2146.089844 1506.890625 C 2133.261719 1509.460938 2117.96875 1510.746094 2100.21875 1510.746094 "/>
<path fill-rule="nonzero" fill="rgb(94.921875%, 94.921875%, 94.921875%)" fill-opacity="1" d="M 1997.050781 1357.960938 L 1998.628906 801.019531 C 1998.671875 789.46875 1990.261719 780.179688 1979.789062 780.199219 L 1902.320312 780.601562 C 1891.851562 780.621094 1883.390625 789.929688 1883.359375 801.480469 L 1881.789062 1358.421875 C 1881.75 1369.96875 1890.148438 1379.261719 1900.621094 1379.25 L 1978.101562 1378.839844 C 1988.570312 1378.828125 1997.019531 1369.511719 1997.050781 1357.960938 "/>
<path fill-rule="nonzero" fill="rgb(33.325195%, 59.959412%, 100%)" fill-opacity="1" d="M 1867.289062 872.28125 L 1867.289062 1362.058594 C 1866.589844 1383.480469 1896.628906 1386.820312 1898.828125 1362.058594 L 1898.828125 869.519531 C 1898.828125 855.378906 1899.921875 834.289062 1902.089844 824.75 C 1904.351562 815.328125 1908.300781 807.96875 1913.949219 802.679688 C 1919.589844 797.511719 1931.890625 794.921875 1942.050781 794.921875 C 1956.078125 794.921875 1970.390625 800.210938 1976.191406 810.789062 C 1982 821.46875 1984.898438 846.878906 1984.898438 868.488281 L 1984.898438 1362.058594 C 1988.480469 1388.140625 2016.761719 1381.121094 2016.441406 1362.058594 L 2016.441406 872.28125 C 2016.441406 852.511719 2019.460938 836.019531 2016.71875 822.800781 C 2014.058594 809.578125 2004.589844 797.96875 1997.089844 787.96875 C 1990.628906 779.46875 1983.128906 773.261719 1974.589844 769.351562 C 1966.039062 765.441406 1956.039062 763.488281 1944.589844 763.488281 C 1930.960938 763.488281 1919.230469 765.558594 1909.390625 769.699219 C 1899.550781 773.949219 1891.519531 780.441406 1885.308594 789.179688 C 1879.109375 798.03125 1874.550781 809.289062 1871.648438 822.96875 C 1868.738281 836.761719 1867.289062 853.199219 1867.289062 872.28125 "/>
<path fill-rule="nonzero" fill="rgb(100%, 44.309998%, 50.193787%)" fill-opacity="1" d="M 1866.21875 1353.828125 L 1868.140625 793.46875 C 1868.191406 781.121094 1857.921875 771.191406 1845.140625 771.210938 L 1750.539062 771.640625 C 1737.75 771.660156 1727.429688 781.621094 1727.390625 793.96875 L 1725.46875 1354.328125 C 1725.421875 1366.679688 1735.691406 1376.609375 1748.46875 1376.589844 L 1843.070312 1376.148438 C 1855.851562 1376.140625 1866.179688 1366.179688 1866.21875 1353.828125 "/>
<path fill="none" stroke-width="160.54" stroke-linecap="square" stroke-linejoin="round" stroke="rgb(100%, 100%, 100%)" stroke-opacity="1" stroke-miterlimit="4" d="M 17968.007812 16653.59375 C 17762.617188 16653.59375 17596.09375 16495.117188 17596.09375 16299.492188 C 17596.09375 16103.90625 17762.617188 15945.3125 17968.007812 15945.3125 C 18173.515625 15945.3125 18340 16103.90625 18340 16299.492188 C 18340 16495.117188 18173.515625 16653.59375 17968.007812 16653.59375 Z M 17968.007812 16653.59375 " transform="matrix(0.1, 0, 0, -0.1, 0, 2501.25)"/>
<path fill-rule="nonzero" fill="rgb(100%, 100%, 100%)" fill-opacity="1" d="M 1849.800781 1224.101562 C 1847.539062 1219.269531 1842.46875 1216.191406 1836.910156 1216.28125 C 1771.148438 1216.488281 1822.53125 1215.679688 1756.578125 1215.898438 C 1751.601562 1215.851562 1746.96875 1218.371094 1744.46875 1222.480469 C 1741.96875 1226.589844 1741.988281 1231.660156 1744.519531 1235.761719 C 1747.050781 1239.851562 1751.691406 1242.328125 1756.679688 1242.261719 C 1822.441406 1242.039062 1771.058594 1242.859375 1837 1242.640625 C 1841.71875 1242.691406 1846.128906 1240.449219 1848.71875 1236.699219 C 1851.308594 1232.949219 1851.71875 1228.199219 1849.800781 1224.101562 "/>
<path fill-rule="nonzero" fill="rgb(100%, 100%, 100%)" fill-opacity="1" d="M 1849.800781 1268.691406 C 1847.539062 1263.851562 1842.46875 1260.769531 1836.910156 1260.859375 C 1771.148438 1261.078125 1822.53125 1260.269531 1756.578125 1260.480469 C 1751.601562 1260.441406 1746.96875 1262.949219 1744.46875 1267.058594 C 1741.980469 1271.171875 1741.988281 1276.25 1744.519531 1280.339844 C 1747.050781 1284.441406 1751.691406 1286.921875 1756.679688 1286.839844 C 1822.441406 1286.628906 1771.058594 1287.441406 1837 1287.21875 C 1841.71875 1287.269531 1846.128906 1285.03125 1848.71875 1281.28125 C 1851.308594 1277.53125 1851.71875 1272.789062 1849.800781 1268.691406 "/>
<path fill-rule="nonzero" fill="rgb(100%, 100%, 100%)" fill-opacity="1" d="M 1849.800781 1179.519531 C 1847.539062 1174.679688 1842.46875 1171.601562 1836.910156 1171.691406 C 1771.148438 1171.910156 1822.53125 1171.089844 1756.578125 1171.308594 C 1751.601562 1171.269531 1746.96875 1173.78125 1744.46875 1177.890625 C 1741.980469 1182 1741.988281 1187.078125 1744.519531 1191.171875 C 1747.050781 1195.261719 1751.691406 1197.75 1756.679688 1197.671875 C 1822.441406 1197.460938 1771.058594 1198.269531 1837 1198.050781 C 1841.71875 1198.101562 1846.128906 1195.859375 1848.71875 1192.109375 C 1851.308594 1188.359375 1851.71875 1183.621094 1849.800781 1179.519531 "/>
<path fill-rule="nonzero" fill="rgb(96.875%, 77.34375%, 37.646484%)" fill-opacity="1" d="M 1845.261719 887.03125 L 1977.890625 886.589844 C 1981.988281 886.578125 1985.289062 888.890625 1985.289062 891.761719 L 1985.140625 970.660156 C 1985.140625 973.53125 1981.828125 975.851562 1977.71875 975.859375 L 1845.089844 976.289062 C 1840.988281 976.300781 1837.691406 974 1837.691406 971.128906 L 1879.628906 931 L 1837.839844 892.21875 C 1837.839844 889.351562 1841.148438 887.039062 1845.261719 887.03125 "/>
<path fill-rule="nonzero" fill="rgb(96.875%, 77.34375%, 37.646484%)" fill-opacity="1" d="M 1719.199219 796.929688 L 1721.230469 1356.238281 C 1721.28125 1369.308594 1710.421875 1379.820312 1696.898438 1379.800781 L 1638.328125 1379.339844 C 1624.808594 1379.320312 1613.878906 1368.789062 1613.839844 1355.71875 L 1611.808594 796.410156 C 1611.761719 783.339844 1622.621094 772.828125 1636.140625 772.851562 L 1694.710938 773.308594 C 1708.230469 773.320312 1719.148438 783.859375 1719.199219 796.929688 "/>
<path fill-rule="nonzero" fill="rgb(100%, 100%, 100%)" fill-opacity="1" d="M 1696.761719 877.011719 L 1697.601562 957.050781 C 1697.621094 961.121094 1693.148438 964.390625 1687.578125 964.390625 L 1646.359375 964.25 C 1640.789062 964.238281 1636.300781 960.960938 1636.28125 956.890625 L 1635.441406 876.839844 C 1635.421875 872.769531 1639.890625 869.5 1645.460938 869.5 L 1686.679688 869.648438 C 1692.25 869.648438 1696.738281 872.929688 1696.761719 877.011719 "/>
<path fill-rule="nonzero" fill="rgb(96.875%, 77.34375%, 37.646484%)" fill-opacity="1" d="M 2129.699219 796.929688 L 2131.738281 1356.238281 C 2131.789062 1369.308594 2120.929688 1379.820312 2107.398438 1379.800781 L 2048.839844 1379.339844 C 2035.308594 1379.320312 2024.390625 1368.789062 2024.351562 1355.71875 L 2022.308594 796.410156 C 2022.261719 783.339844 2033.121094 772.828125 2046.648438 772.851562 L 2105.21875 773.308594 C 2118.738281 773.320312 2129.660156 783.859375 2129.699219 796.929688 "/>
<path fill-rule="nonzero" fill="rgb(100%, 100%, 100%)" fill-opacity="1" d="M 2107.269531 877.011719 L 2108.109375 957.050781 C 2108.128906 961.121094 2103.648438 964.390625 2098.089844 964.390625 L 2056.871094 964.25 C 2051.300781 964.238281 2046.800781 960.960938 2046.789062 956.890625 L 2045.949219 876.839844 C 2045.929688 872.769531 2050.398438 869.5 2055.96875 869.5 L 2097.179688 869.648438 C 2102.75 869.648438 2107.25 872.929688 2107.269531 877.011719 "/>
<path fill-rule="nonzero" fill="rgb(33.325195%, 59.959412%, 100%)" fill-opacity="1" d="M 1286.308594 1499.910156 L 1308.558594 1510.65625 C 1319.839844 1516.113281 1324.328125 1529.449219 1318.621094 1540.566406 L 1078.179688 2008.800781 C 1072.46875 2019.917969 1058.789062 2024.476562 1047.511719 2019.023438 L 1025.261719 2008.269531 C 1013.96875 2002.816406 1009.480469 1989.476562 1015.191406 1978.363281 L 1255.640625 1510.128906 C 1261.339844 1499.011719 1275.03125 1494.449219 1286.308594 1499.910156 "/>
<path fill-rule="nonzero" fill="rgb(33.325195%, 59.959412%, 100%)" fill-opacity="1" d="M 1417.769531 918.839844 C 1298.050781 924.148438 1183.679688 991.988281 1125.640625 1105.019531 C 1041.21875 1269.421875 1107.238281 1468.519531 1273.128906 1548.695312 C 1439.03125 1628.871094 1642.628906 1560.070312 1727.050781 1395.671875 C 1811.480469 1231.269531 1745.449219 1032.160156 1579.558594 951.988281 C 1527.710938 926.929688 1472.191406 916.429688 1417.769531 918.839844 Z M 1419.199219 970.550781 C 1465.03125 968.558594 1511.820312 977.480469 1555.601562 998.640625 C 1695.699219 1066.351562 1751.261719 1233.398438 1679.691406 1372.78125 C 1608.121094 1512.160156 1437.191406 1569.746094 1297.101562 1502.039062 C 1157 1434.328125 1101.429688 1267.289062 1173.011719 1127.910156 C 1222.210938 1032.078125 1318.378906 974.921875 1419.199219 970.550781 "/>
<path fill-rule="nonzero" fill="rgb(96.875%, 77.34375%, 37.646484%)" fill-opacity="1" d="M 1226.921875 1596.382812 C 1161.191406 1572.207031 1145.480469 1665.003906 1120.601562 1702.804688 C 1080.929688 1792.652344 1019.609375 1876.460938 990.6875 1969.378906 C 989.980469 2021.679688 1084.191406 2055.6875 1115.28125 1980.261719 C 1167.21875 1869.320312 1236 1763.398438 1279.128906 1649.796875 C 1279.949219 1620.1875 1251.148438 1605.535156 1226.921875 1596.382812 "/>
<path fill-rule="nonzero" fill="rgb(33.325195%, 59.959412%, 100%)" fill-opacity="1" d="M 2214.179688 2050.859375 C 2214.179688 2079.066406 2215.28125 2158.25 2215.28125 2158.25 C 2215.28125 2197.699219 2365.058594 2195.949219 2365.058594 2161.238281 C 2365.058594 2161.238281 2365.828125 2108.871094 2365.828125 2043.054688 C 2365.828125 2026.230469 2358.078125 2018.105469 2349.070312 2018.203125 C 2325.210938 2018.460938 2255.648438 2017.390625 2231.800781 2017.390625 C 2223.308594 2017.390625 2214.179688 2019.089844 2214.179688 2038.035156 L 2214.179688 2050.859375 "/>
<path fill-rule="nonzero" fill="rgb(100%, 100%, 100%)" fill-opacity="1" d="M 2216.058594 2026.984375 C 2216.058594 2059.636719 2360.878906 2058.1875 2360.878906 2029.457031 C 2360.878906 2029.457031 2360.679688 2083.160156 2360.679688 2028.683594 C 2360.539062 1999.878906 2217.078125 2000.386719 2216.070312 2027.5625 C 2216.070312 2060.730469 2216.070312 1993.816406 2216.058594 2026.984375 "/>
<path fill-rule="nonzero" fill="rgb(44.309998%, 76.951599%, 49.414062%)" fill-opacity="1" d="M 2223.980469 1991.640625 C 2249.71875 2013.332031 2302.570312 2016.507812 2321.640625 2017.347656 C 2347.738281 2018.496094 2377.28125 2006.273438 2382.128906 1983.722656 C 2392.808594 1934.023438 2349.121094 1909.664062 2291.078125 1861.382812 C 2258.300781 1834.113281 2238.621094 1820.5 2224.128906 1791.742188 C 2203.601562 1750.984375 2229.109375 1681.910156 2201.28125 1656.75 C 2173.460938 1631.589844 2140.289062 1636.292969 2116.140625 1651.308594 C 2097.789062 1662.714844 2089.109375 1686.273438 2091.21875 1711.152344 C 2093.320312 1736.03125 2122 1767.617188 2130.800781 1787.269531 C 2165.269531 1864.167969 2166.730469 1943.394531 2223.980469 1991.640625 "/>
<path fill-rule="nonzero" fill="rgb(100%, 100%, 100%)" fill-opacity="1" d="M 2163.460938 1686.585938 C 2163.410156 1686.800781 2163.390625 1687.023438 2163.390625 1687.242188 C 2164.488281 1744.363281 2165.46875 1801.769531 2187.078125 1844.144531 C 2208.699219 1886.519531 2250.359375 1912.84375 2269.78125 1939.464844 C 2289.199219 1966.085938 2287.789062 1993.804688 2286.320312 2022.390625 C 2286.261719 2023.28125 2286.679688 2024.136719 2287.421875 2024.628906 C 2288.171875 2025.117188 2289.121094 2025.167969 2289.910156 2024.753906 C 2290.699219 2024.34375 2291.210938 2023.535156 2291.230469 2022.644531 C 2292.691406 1994.058594 2294.199219 1964.601562 2273.75 1936.570312 C 2253.300781 1908.535156 2212.28125 1882.726562 2191.460938 1841.910156 C 2170.640625 1801.097656 2169.410156 1744.269531 2168.308594 1687.148438 C 2168.300781 1685.90625 2167.371094 1684.863281 2166.128906 1684.71875 C 2164.898438 1684.578125 2163.75 1685.378906 2163.460938 1686.585938 "/>
<path fill-rule="nonzero" fill="rgb(44.309998%, 76.951599%, 49.414062%)" fill-opacity="1" d="M 2282.5 1853.089844 C 2288.441406 1893.9375 2256.339844 1957.429688 2272.769531 1976.492188 C 2295.261719 2016.546875 2363.210938 2032.003906 2392.390625 1975.800781 C 2420.238281 1922.179688 2427.308594 1892.480469 2405.679688 1792.621094 C 2394.210938 1739.667969 2372.109375 1731.828125 2409.238281 1672.519531 C 2427.71875 1643 2447.851562 1600.105469 2448.480469 1576.398438 C 2449.109375 1544.238281 2422.769531 1507.691406 2392.109375 1497.210938 C 2362.691406 1487.148438 2328.328125 1495.648438 2302.828125 1524.160156 C 2277.339844 1552.671875 2266.171875 1574.625 2257.269531 1617.601562 C 2231.078125 1744 2276.269531 1810.289062 2282.5 1853.089844 "/>
<path fill-rule="nonzero" fill="rgb(100%, 100%, 100%)" fill-opacity="1" d="M 2369.050781 1587.171875 C 2368.898438 1587.332031 2368.769531 1587.511719 2368.660156 1587.707031 C 2341.058594 1637.722656 2313.191406 1687.925781 2310.730469 1735.429688 C 2308.261719 1782.9375 2331.109375 1826.453125 2332.839844 1862.839844 C 2334.558594 1899.226562 2315.699219 1930.097656 2304.328125 1956.007812 C 2292.960938 1981.914062 2289.628906 2002.175781 2286.351562 2022.117188 C 2286.199219 2022.988281 2286.53125 2023.878906 2287.210938 2024.441406 C 2287.890625 2025.003906 2288.820312 2025.15625 2289.648438 2024.839844 C 2290.480469 2024.527344 2291.070312 2023.789062 2291.199219 2022.914062 C 2294.480469 2002.972656 2297.699219 1983.351562 2308.828125 1957.980469 C 2319.96875 1932.609375 2339.558594 1900.804688 2337.75 1862.605469 C 2335.929688 1824.410156 2313.261719 1781.441406 2315.628906 1735.683594 C 2318.011719 1689.929688 2345.359375 1640.097656 2372.96875 1590.082031 C 2373.578125 1589.003906 2373.289062 1587.632812 2372.300781 1586.890625 C 2371.300781 1586.148438 2369.910156 1586.269531 2369.050781 1587.171875 "/>
<path fill-rule="nonzero" fill="rgb(44.309998%, 76.951599%, 49.414062%)" fill-opacity="1" d="M 2520.570312 1847.578125 C 2529.96875 1831.574219 2538.089844 1810.320312 2534.398438 1793.644531 C 2529.351562 1770.8125 2492.199219 1746.835938 2465.769531 1751.523438 C 2420.980469 1759.46875 2409.398438 1797.207031 2381.109375 1858.558594 C 2365.128906 1893.214844 2353.53125 1908.351562 2348.191406 1914.070312 C 2336.808594 1926.261719 2307.910156 1947.082031 2299.691406 1960.429688 C 2291.46875 1973.773438 2294.648438 1997.464844 2303.949219 2007.925781 C 2313.25 2018.382812 2344.570312 2017.734375 2359.078125 2011.484375 C 2373.589844 2005.234375 2417.550781 1943.421875 2432.5 1931.261719 C 2490.980469 1883.660156 2500.058594 1882.5 2520.570312 1847.578125 "/>
<path fill-rule="nonzero" fill="rgb(100%, 100%, 100%)" fill-opacity="1" d="M 2491.980469 1810.761719 C 2491.429688 1810.738281 2490.878906 1810.898438 2490.429688 1811.222656 C 2466.800781 1827.75 2442.851562 1844.480469 2422.171875 1872.699219 C 2401.488281 1900.921875 2384.238281 1940.203125 2368.238281 1963.011719 C 2352.230469 1985.8125 2337.519531 1992.617188 2324.03125 1999.671875 C 2310.53125 2006.722656 2299 2013.578125 2287.519531 2020.40625 C 2286.75 2020.84375 2286.269531 2021.667969 2286.28125 2022.558594 C 2286.28125 2023.449219 2286.769531 2024.265625 2287.550781 2024.695312 C 2288.328125 2025.125 2289.28125 2025.097656 2290.03125 2024.628906 C 2301.511719 2017.800781 2312.949219 2011.003906 2326.300781 2004.023438 C 2339.660156 1997.046875 2355.699219 1989.4375 2372.261719 1965.832031 C 2388.828125 1942.230469 2405.980469 1903.113281 2426.128906 1875.605469 C 2446.289062 1848.097656 2469.609375 1831.777344 2493.25 1815.25 C 2494.128906 1814.65625 2494.519531 1813.566406 2494.230469 1812.550781 C 2493.949219 1811.53125 2493.039062 1810.8125 2491.980469 1810.761719 "/>
</svg>
