<svg width="3750" height="2502" viewBox="0 0 3750 2502" fill="none" xmlns="http://www.w3.org/2000/svg">
<g clip-path="url(#clip0_555_507)">
<path d="M1364.87 973.852V1087.51C1364.73 1099.15 1374.12 1108.66 1385.76 1108.66C1397.4 1108.66 1406.79 1099.15 1406.65 1087.51V932.059V970.27C1406.92 951.211 1383.62 941.77 1370.55 955.641C1366.83 959.59 1364.79 964.84 1364.87 970.27V932.059V973.852Z" fill="#5599FF"/>
<path d="M1364.87 802.699V916.371C1364.73 928 1374.12 937.512 1385.76 937.512C1397.4 937.512 1406.79 928 1406.65 916.371V760.922V799.121C1406.92 780.07 1383.62 770.629 1370.55 784.5C1366.83 788.449 1364.79 793.691 1364.87 799.121V760.922V802.699Z" fill="#5599FF"/>
<path d="M2216.51 954.981V1084.8C2216.37 1096.44 2225.76 1105.95 2237.4 1105.95C2249.04 1105.95 2258.43 1096.44 2258.29 1084.81V799.532C2258.56 780.481 2235.26 771.039 2222.19 784.91C2218.47 788.86 2216.43 794.102 2216.51 799.532V954.981Z" fill="#5599FF"/>
<path d="M1466.68 544.18H2158.63C2205.32 544.18 2242.9 588.68 2242.9 643.961V2126.1C2242.9 2181.38 2205.32 2225.88 2158.63 2225.88H1466.68C1419.99 2225.88 1382.41 2181.38 1382.41 2126.1V643.961C1382.41 588.68 1419.99 544.18 1466.68 544.18Z" fill="#5599FF"/>
<path d="M1491.61 575.141H2133.7C2177.02 575.141 2211.9 618 2211.9 671.238V2098.81C2211.9 2152.05 2177.02 2194.91 2133.7 2194.91H1491.61C1448.29 2194.91 1413.41 2152.05 1413.41 2098.81V671.238C1413.41 618 1448.29 575.141 1491.61 575.141Z" fill="white"/>
<path d="M1840.9 635.871C1840.9 651.469 1828.26 664.121 1812.66 664.121C1805.16 664.121 1797.98 661.148 1792.68 655.852C1787.38 650.551 1784.41 643.371 1784.41 635.871C1784.41 628.379 1787.38 621.199 1792.68 615.898C1797.98 610.602 1805.16 607.629 1812.66 607.629C1828.26 607.629 1840.9 620.27 1840.9 635.871Z" fill="black"/>
<path d="M2088.17 1847.29L1486.48 1845.59C1474 1845.55 1463.96 1854.64 1463.98 1865.97L1464.42 1949.84C1464.43 1961.16 1474.49 1970.31 1486.98 1970.35L2088.67 1972.05C2101.15 1972.09 2111.18 1963 2111.17 1951.67L2110.73 1867.8C2110.72 1856.48 2100.65 1847.33 2088.17 1847.29Z" fill="#F2F2F2"/>
<path d="M1561.51 1987.47H2116.38C2140.64 1988.23 2144.43 1955.83 2116.38 1953.45H1558.38C1542.37 1953.45 1518.47 1952.28 1507.66 1949.93C1496.98 1947.5 1488.65 1943.23 1482.66 1937.14C1476.8 1931.05 1473.87 1917.8 1473.87 1906.84C1473.87 1891.7 1479.86 1876.27 1491.84 1870C1503.95 1863.74 1532.73 1860.61 1557.21 1860.61H2116.38C2145.93 1856.75 2137.97 1826.25 2116.38 1826.59H1561.51C1530.36 1826.93 1487.23 1827.62 1465.99 1846C1457.01 1853.78 1449.33 1862.52 1444.9 1871.74C1440.47 1880.96 1438.26 1891.74 1438.26 1904.1C1438.26 1918.8 1440.6 1931.45 1445.29 1942.07C1450.11 1952.68 1457.46 1961.33 1467.36 1968.03C1477.39 1974.73 1490.15 1979.64 1505.64 1982.77C1521.27 1985.91 1539.89 1987.47 1561.51 1987.47Z" fill="#5599FF"/>
<path d="M2160.15 1689.57L1568.57 1687.63C1555.48 1687.58 1544.95 1697.94 1544.97 1710.84L1545.43 1806.34C1545.45 1819.25 1556 1829.66 1569.1 1829.7L2160.67 1831.65C2173.77 1831.69 2184.29 1821.33 2184.28 1808.43L2183.81 1712.93C2183.8 1700.03 2173.24 1689.61 2160.15 1689.57Z" fill="#FF8080"/>
<path d="M1613.54 1759.64C1613.54 1780.37 1630.35 1797.19 1651.09 1797.19C1671.83 1797.19 1688.64 1780.37 1688.64 1759.64C1688.64 1738.9 1671.83 1722.09 1651.09 1722.09C1630.35 1722.09 1613.54 1738.9 1613.54 1759.64Z" stroke="white" stroke-width="17.0209" stroke-linecap="square" stroke-linejoin="round"/>
<path d="M2025.14 1706.14C2020.01 1708.42 2016.75 1713.54 2016.85 1719.15C2017.07 1785.53 2016.21 1733.66 2016.44 1800.24C2016.39 1805.27 2019.06 1809.94 2023.42 1812.46C2027.78 1814.98 2033.15 1814.96 2037.5 1812.41C2041.84 1809.86 2044.47 1805.18 2044.39 1800.14C2044.16 1733.76 2045.02 1785.63 2044.79 1719.06C2044.84 1714.3 2042.47 1709.84 2038.5 1707.23C2034.52 1704.62 2029.49 1704.2 2025.14 1706.14Z" fill="white"/>
<path d="M2072.41 1706.14C2067.28 1708.42 2064.02 1713.54 2064.12 1719.15C2064.34 1785.53 2063.48 1733.66 2063.71 1800.24C2063.66 1805.27 2066.33 1809.94 2070.69 1812.46C2075.05 1814.98 2080.43 1814.96 2084.77 1812.41C2089.11 1809.86 2091.74 1805.18 2091.66 1800.14C2091.43 1733.76 2092.29 1785.63 2092.06 1719.06C2092.12 1714.3 2089.74 1709.84 2085.77 1707.23C2081.79 1704.62 2076.76 1704.2 2072.41 1706.14Z" fill="white"/>
<path d="M1977.87 1706.14C1972.74 1708.42 1969.48 1713.54 1969.57 1719.15C1969.8 1785.53 1968.94 1733.66 1969.17 1800.24C1969.12 1805.27 1971.79 1809.94 1976.15 1812.46C1980.51 1814.98 1985.88 1814.96 1990.22 1812.41C1994.57 1809.86 1997.2 1805.18 1997.12 1800.14C1996.89 1733.76 1997.75 1785.63 1997.52 1719.06C1997.57 1714.3 1995.2 1709.84 1991.22 1707.23C1987.25 1704.62 1982.22 1704.2 1977.87 1706.14Z" fill="white"/>
<path d="M1578.21 2011.24L1577.72 1868.18C1577.71 1863.75 1580.32 1860.19 1583.57 1860.2L1672.97 1860.35C1676.22 1860.36 1678.84 1863.93 1678.85 1868.35L1679.34 2011.41C1679.35 2015.84 1676.74 2019.4 1673.49 2019.4L1628.03 1974.16L1584.1 2019.24C1580.85 2019.24 1578.22 2015.66 1578.21 2011.24Z" fill="#F7C560"/>
<path d="M2051.69 1589.92L1491.25 1587.98C1478.15 1587.93 1467.63 1598.29 1467.64 1611.19L1468.11 1667.07C1468.12 1679.97 1478.68 1690.39 1491.77 1690.43L2052.21 1692.37C2065.31 1692.42 2075.83 1682.06 2075.82 1669.16L2075.35 1613.28C2075.34 1600.38 2064.78 1589.96 2051.69 1589.92Z" fill="#F7C560"/>
<path d="M1985.13 1609.65L1900.26 1608.8C1895.95 1608.78 1892.48 1613.3 1892.48 1618.92L1892.63 1660.52C1892.64 1666.14 1896.12 1670.68 1900.43 1670.7L1985.3 1671.55C1989.62 1671.57 1993.09 1667.05 1993.08 1661.43L1992.93 1619.82C1992.93 1614.2 1989.44 1609.66 1985.13 1609.65Z" fill="white"/>
<path d="M1605.83 1475.95L2099.88 1474.55C2110.13 1474.52 2118.37 1481.99 2118.35 1491.29L2117.99 1560.15C2117.98 1569.45 2109.72 1576.97 2099.47 1577L1605.42 1578.4C1595.17 1578.43 1586.93 1570.96 1586.94 1561.66L1587.3 1492.8C1587.31 1483.5 1595.58 1475.98 1605.83 1475.95Z" fill="#F2F2F2"/>
<path d="M2038.27 1591.06H1582.66C1562.74 1591.68 1559.63 1565.07 1582.66 1563.13H2040.84C2053.99 1563.13 2073.61 1562.16 2082.48 1560.23C2091.25 1558.23 2098.09 1554.73 2103.01 1549.73C2107.82 1544.73 2110.23 1533.84 2110.23 1524.85C2110.23 1512.42 2105.31 1499.75 2095.48 1494.6C2085.53 1489.46 2061.9 1486.89 2041.8 1486.89H1582.66C1558.4 1483.72 1564.93 1458.68 1582.66 1458.96H2038.27C2063.84 1459.24 2099.26 1459.8 2116.7 1474.89C2124.08 1481.28 2130.38 1488.46 2134.02 1496.03C2137.65 1503.6 2139.47 1512.45 2139.47 1522.6C2139.47 1534.67 2137.55 1545.06 2133.7 1553.77C2129.74 1562.48 2123.7 1569.59 2115.57 1575.09C2107.34 1580.59 2096.86 1584.63 2084.14 1587.2C2071.31 1589.77 2056.02 1591.06 2038.27 1591.06Z" fill="#FF8080"/>
<path d="M1222.64 1807.81L1244.66 1819C1255.84 1824.68 1260.06 1838.11 1254.13 1849.11L1004.35 2312.43C998.422 2323.43 984.652 2327.72 973.48 2322.04L951.449 2310.84C940.277 2305.16 936.058 2291.73 941.988 2280.73L1191.76 1817.41C1197.69 1806.41 1211.46 1802.13 1222.64 1807.81Z" fill="#5599FF"/>
<path d="M1365.71 1229.49C1245.91 1232.4 1130.2 1297.94 1069.91 1409.78C982.211 1572.46 1044.23 1772.84 1208.49 1856.32C1372.74 1939.8 1577.68 1875.1 1665.38 1712.42C1753.08 1549.74 1691.06 1349.35 1526.8 1265.87C1475.47 1239.78 1420.17 1228.17 1365.71 1229.49ZM1366.1 1281.22C1411.96 1280.15 1458.56 1290.01 1501.91 1312.04C1640.63 1382.54 1692.84 1550.66 1618.48 1688.59C1544.13 1826.5 1372.09 1880.66 1233.38 1810.16C1094.66 1739.66 1042.45 1571.53 1116.81 1433.61C1167.93 1338.79 1265.21 1283.57 1366.1 1281.22Z" fill="#5599FF"/>
<path d="M1161.32 1903.07C1096.09 1877.59 1078.53 1970.05 1052.9 2007.35C1011.43 2096.38 948.445 2178.95 917.664 2271.26C915.914 2323.54 1009.43 2359.43 1042.02 2284.64C1096.17 2174.76 1167.05 2070.24 1212.45 1957.52C1213.87 1927.93 1185.37 1912.71 1161.32 1903.07Z" fill="#F7C560"/>
<path d="M1672.52 1141.15H1953.45C1960.84 1141.15 1966.78 1145.76 1966.78 1151.49C1966.78 1151.49 1894.94 1259.78 1896.48 1318.24C1897.84 1370.27 1728.04 1373.49 1729.49 1318.24C1730.94 1262.99 1659.18 1151.49 1659.18 1151.49C1659.18 1151.49 1665.13 1141.15 1672.52 1141.15Z" fill="#F7C560"/>
<path d="M1989.14 1082.39C1989.14 1127.72 1970.58 1171.19 1937.55 1203.24C1904.51 1235.29 1859.7 1253.3 1812.98 1253.3C1715.69 1253.3 1636.82 1176.78 1636.82 1082.39C1636.82 988 1715.69 911.469 1812.98 911.469C1859.7 911.469 1904.51 929.48 1937.55 961.531C1970.58 993.59 1989.14 1037.06 1989.14 1082.39Z" fill="#F7C560"/>
<path d="M2087.89 927.691C2085.97 927.609 2084.06 927.968 2082.31 928.769C2028.94 951.98 2070.76 934.441 2017.55 957.59C2013.48 959.289 2010.64 963.05 2010.13 967.422C2009.61 971.8 2011.48 976.121 2015.04 978.718C2018.6 981.328 2023.28 981.808 2027.29 980C2080.66 956.781 2038.84 974.32 2092.05 951.172C2097.33 948.961 2100.37 943.398 2099.37 937.769C2098.37 932.14 2093.61 927.949 2087.89 927.691Z" fill="#FBEDC4"/>
<path d="M1538.27 922.649C1532.39 922.512 1527.25 926.571 1526.02 932.321C1524.8 938.059 1527.84 943.872 1533.26 946.141C1586.47 969.289 1544.65 951.75 1598.02 974.961C1602.03 976.782 1606.71 976.289 1610.27 973.692C1613.83 971.09 1615.7 966.77 1615.19 962.391C1614.67 958.02 1611.83 954.262 1607.76 952.559C1554.55 929.411 1596.37 946.95 1543 923.731C1541.51 923.059 1539.9 922.692 1538.27 922.649Z" fill="#FBEDC4"/>
<path d="M1939.87 765.41C1935.14 765.191 1930.74 767.828 1928.7 772.102C1903.81 822.262 1922.74 782.801 1897.77 833.109C1895.84 836.891 1896.09 841.422 1898.42 844.969C1900.76 848.519 1904.82 850.531 1909.06 850.25C1913.3 849.961 1917.05 847.422 1918.89 843.59C1943.79 793.43 1924.85 832.879 1949.82 782.578C1951.65 779.012 1951.55 774.75 1949.53 771.281C1947.52 767.801 1943.88 765.59 1939.87 765.41Z" fill="#FBEDC4"/>
<path d="M1678.8 776.711C1675 776.621 1671.42 778.539 1669.4 781.762C1667.38 784.988 1667.2 789.039 1668.94 792.43C1691.79 838.461 1674.46 802.359 1697.24 848.262C1698.93 851.75 1702.36 854.07 1706.24 854.32C1710.11 854.578 1713.82 852.738 1715.95 849.5C1718.09 846.262 1718.32 842.121 1716.56 838.672C1693.72 792.629 1711.05 828.738 1688.27 782.84C1686.52 779.18 1682.86 776.809 1678.8 776.711Z" fill="#FBEDC4"/>
<path d="M1724.06 1347.45C1724.06 1406.64 1763.21 1445.13 1811.51 1445.13C1859.82 1445.13 1898.97 1406.64 1898.97 1347.45C1898.97 1288.27 1859.82 1295.73 1811.51 1295.73C1763.21 1295.73 1724.06 1288.27 1724.06 1347.45Z" fill="#5599FF"/>
<path d="M1736.77 1336.86H1888.54C1901.24 1336.86 1911.46 1346.19 1911.46 1357.79V1360.25C1911.46 1371.84 1901.24 1381.17 1888.54 1381.17H1736.77C1724.07 1381.17 1713.85 1371.84 1713.85 1360.25V1357.79C1713.85 1346.19 1724.07 1336.86 1736.77 1336.86Z" fill="#5599FF"/>
<path d="M1736.77 1296.1H1888.54C1901.24 1296.1 1911.46 1305.43 1911.46 1317.02V1319.49C1911.46 1331.08 1901.24 1340.41 1888.54 1340.41H1736.77C1724.07 1340.41 1713.85 1331.08 1713.85 1319.49V1317.02C1713.85 1305.43 1724.07 1296.1 1736.77 1296.1Z" fill="#5599FF"/>
<path d="M2486.94 509.34C2462.27 565.699 2414.47 675.031 2414.47 675.031C2327.02 872.441 1802.58 643.34 1887.31 451.449C1887.31 451.449 1912.42 396.039 1969.97 264.531C1984.68 230.91 2018.56 226.379 2049.57 240.191C2131.78 276.781 2370.56 378.719 2452.93 414.769C2482.26 427.609 2508.04 461.101 2498.15 483.719L2486.94 509.34Z" fill="#5599FF"/>
<path d="M2482.24 703.469C2462.7 721.14 2433.06 756.5 2425.82 781.808C2418.58 807.121 2433.73 822.379 2449.25 829.039C2464.78 835.699 2480.66 833.769 2492.8 817.851C2504.94 801.929 2513.32 772.031 2517.33 747.699C2521.35 723.371 2521 704.609 2516.11 695.219C2511.22 685.828 2501.78 685.808 2482.24 703.469Z" fill="#F7C560"/>
<path d="M2707.86 535.441L2362.35 153.07C2349.75 139.129 2324.21 128.078 2305.07 128.289L1791.02 133.93C1771.88 134.141 1766.62 145.531 1779.21 159.469L2124.72 541.84C2137.32 555.781 2162.86 566.828 2182 566.621L2696.05 560.98C2715.19 560.77 2720.45 549.379 2707.86 535.441Z" fill="#5599FF"/>
<path d="M2568.47 532.441L2272.93 339.121C2267.48 335.551 2259.66 335.781 2256.09 342.809C2252.52 349.828 2254.97 356.641 2260.45 360.18L2557.06 555.691L2520.72 637.488C2520.72 637.488 2525.94 664.281 2543.34 641.859C2552.22 630.422 2571.86 568.621 2584.58 553.481C2589.65 547.449 2573.93 536.02 2568.47 532.441Z" fill="#F7C560"/>
<path d="M2279.57 319.441C2286.9 326.429 2291.2 335.551 2291.52 344.801C2291.84 354.051 2288.16 362.679 2281.28 368.781C2266.96 381.48 2242.98 379.988 2227.71 365.441C2212.44 350.898 2211.67 328.808 2225.99 316.109C2232.87 310.012 2242.37 306.929 2252.42 307.558C2262.47 308.179 2272.23 312.461 2279.57 319.441Z" fill="#F7C560"/>
<path d="M2545.79 640.621C2551.78 646.801 2555.09 655.078 2555.01 663.629C2554.92 672.192 2551.44 680.321 2545.33 686.239C2532.61 698.559 2512.19 698.121 2499.72 685.25C2487.26 672.379 2487.46 651.949 2500.19 639.629C2506.3 633.711 2514.53 630.489 2523.09 630.68C2531.64 630.86 2539.81 634.442 2545.79 640.621Z" fill="#F7C560"/>
</g>
<defs>
<clipPath id="clip0_555_507">
<rect width="3750" height="2501.25" fill="white"/>
</clipPath>
</defs>
</svg>
